<svg width="57" height="57" viewBox="0 0 57 57" fill="none" xmlns="http://www.w3.org/2000/svg">
<path opacity="0.1" fill-rule="evenodd" clip-rule="evenodd" d="M24.5416 0.791616H32.4583C45.575 0.791616 56.2083 11.4246 56.2083 24.5416V32.4583C56.2083 45.5748 45.575 56.2082 32.4583 56.2082H24.5416C11.4249 56.2082 0.791673 45.5748 0.791673 32.4583V24.5416C0.791673 11.4246 11.4249 0.791616 24.5416 0.791616Z" fill="url(#paint0_linear_1_483)"/>
<path fill-rule="evenodd" clip-rule="evenodd" d="M31.2171 32.9625C31.3849 32.7923 31.4689 32.5914 31.4689 32.359V30.2147H40.375V36.648C40.375 37.2371 40.1675 37.7423 39.7521 38.162C39.3369 38.5821 38.8376 38.7919 38.2546 38.7919H18.7456C18.1625 38.7919 17.6632 38.5821 17.248 38.162C16.8326 37.7423 16.625 37.2371 16.625 36.648V30.2147H25.5312V32.359C25.5312 32.5914 25.6152 32.7923 25.7831 32.9625C25.951 33.1319 26.1498 33.2171 26.3796 33.2171H30.6207C30.8503 33.2171 31.0493 33.1319 31.2171 32.9625ZM30.1967 30.2147H26.8035V31.93H30.1967V30.2147ZM39.7521 22.2674C39.3369 21.8469 38.8376 21.637 38.2546 21.637H33.5892V19.4927C33.5892 19.1352 33.4657 18.8317 33.2182 18.581C32.971 18.3316 32.6704 18.2061 32.3171 18.2061H24.6832C24.3297 18.2061 24.0294 18.3316 23.782 18.581C23.5346 18.8313 23.4109 19.1352 23.4109 19.4927V21.637H18.7457C18.1625 21.637 17.6632 21.8469 17.248 22.2674C16.8326 22.6866 16.625 23.1914 16.625 23.7813V28.928H40.375V23.7813C40.375 23.1914 40.1675 22.6866 39.7521 22.2674ZM31.893 21.637H25.1073V19.9213H31.893V21.637Z" fill="#FF4550"/>
<defs>
<linearGradient id="paint0_linear_1_483" x1="32.7855" y1="89.7855" x2="89.7855" y2="24.2145" gradientUnits="userSpaceOnUse">
<stop stop-color="#FF416C"/>
<stop offset="1" stop-color="#FF4B2B"/>
</linearGradient>
</defs>
</svg>
