<svg width="82" height="82" viewBox="0 0 82 82" fill="none" xmlns="http://www.w3.org/2000/svg">
<path d="M54 0H28C12.536 0 0 12.536 0 28V54C0 69.464 12.536 82 28 82H54C69.464 82 82 69.464 82 54V28C82 12.536 69.464 0 54 0Z" fill="#EAF9FF"/>
<path d="M30.6533 61C30.5322 60.9996 30.4123 60.9752 30.3005 60.9285C30.1887 60.8817 30.0873 60.8135 30.0019 60.7275C29.9166 60.6415 29.849 60.5396 29.8031 60.4275C29.7572 60.3154 29.7338 60.1951 29.7343 60.074V57.8831C29.7325 57.1494 30.0217 56.4449 30.5386 55.9243C31.0555 55.4037 31.7578 55.1094 32.4914 55.106H34.2003V50.8589C34.1994 50.6521 34.2678 50.4513 34.3947 50.2881C34.5217 50.1249 34.6997 50.0089 34.9004 49.959H34.9123C35.9088 49.7252 36.7866 49.1379 37.3827 48.3059C37.9787 47.4739 38.2526 46.4537 38.1533 45.4351C35.8786 44.3692 34.011 42.5939 32.8313 40.376C32.3588 39.5711 31.9441 38.7338 31.5904 37.8701C29.6036 36.776 27.8913 35.2449 26.5827 33.3923C25.2741 31.5398 24.4034 29.4142 24.0363 27.176C23.9705 26.7653 23.9944 26.3452 24.1064 25.9446C24.2185 25.544 24.416 25.1722 24.6855 24.8552C24.9549 24.5383 25.2898 24.2835 25.6671 24.1084C26.0445 23.9333 26.4553 23.8422 26.8713 23.8411H29.6463V22.967C29.6447 22.4488 29.8489 21.9511 30.214 21.5833C30.579 21.2154 31.0751 21.0073 31.5934 21.0049H50.4073C50.9257 21.0073 51.4219 21.2154 51.7871 21.5833C52.1523 21.9511 52.3566 22.4487 52.3553 22.967V23.8411H55.1294C55.5453 23.8423 55.956 23.9337 56.3333 24.1089C56.7106 24.284 57.0454 24.5388 57.3148 24.8557C57.5842 25.1726 57.7818 25.544 57.8939 25.9446C58.006 26.3451 58.03 26.7653 57.9643 27.176C57.5973 29.4141 56.7268 31.5396 55.4184 33.3921C54.11 35.2446 52.3979 36.7759 50.4113 37.8701C50.0569 38.7337 49.6419 39.571 49.1693 40.376C48.0019 42.5625 46.1692 44.3209 43.9363 45.397C43.8266 46.4215 44.0952 47.4508 44.6916 48.291C45.2879 49.1313 46.171 49.7245 47.1743 49.959H47.1853C47.3872 50.0076 47.5669 50.1228 47.6952 50.2861C47.8235 50.4494 47.893 50.6512 47.8924 50.8589V55.106H49.5923C50.326 55.1094 51.0284 55.4037 51.5454 55.9243C52.0625 56.4449 52.3519 57.1493 52.3503 57.8831V60.074C52.3507 60.1952 52.3272 60.3154 52.2812 60.4275C52.2352 60.5396 52.1676 60.6416 52.0821 60.7275C51.9967 60.8135 51.8951 60.882 51.7833 60.9287C51.6715 60.9755 51.5515 60.9996 51.4303 61H30.6533ZM31.5724 57.8821V59.1479H50.5163V57.8821C50.5169 57.6376 50.4204 57.4029 50.2481 57.2295C50.0758 57.0561 49.8418 56.9581 49.5973 56.957H32.4914C32.2471 56.9581 32.0132 57.0558 31.8409 57.229C31.6687 57.4022 31.5721 57.6368 31.5724 57.8811V57.8821ZM36.0343 55.105H46.0553V51.7839H36.0343V55.105ZM39.0644 49.115C38.8807 49.404 38.6733 49.6772 38.4443 49.9319H43.6533C42.6585 48.8315 42.0973 47.4073 42.0743 45.9241C41.7187 45.9766 41.3597 46.0019 41.0003 46C40.6698 46 40.3397 45.9771 40.0124 45.9319C39.9992 47.0602 39.6708 48.1625 39.0644 49.114V49.115ZM31.4843 22.9619V27.3911C31.3933 31.5894 32.4024 35.7384 34.4113 39.426C36.2113 42.476 38.5503 44.155 41.0003 44.155C43.4503 44.155 45.7903 42.477 47.5893 39.426C49.5983 35.7384 50.6074 31.5894 50.5163 27.3911V22.9619C50.5165 22.9474 50.5137 22.9331 50.5083 22.9197C50.5028 22.9062 50.4947 22.8939 50.4845 22.8835C50.4742 22.8732 50.462 22.865 50.4486 22.8594C50.4352 22.8538 50.4209 22.8511 50.4063 22.8511H31.5934C31.5644 22.8513 31.5366 22.8629 31.5162 22.8835C31.4958 22.9041 31.4843 22.9319 31.4843 22.9609V22.9619ZM52.3543 27.3911C52.3641 29.9645 52.0346 32.5277 51.3744 35.0149C53.9197 32.9867 55.621 30.0856 56.1483 26.874C56.1724 26.7294 56.1644 26.5811 56.1248 26.4399C56.0852 26.2988 56.0151 26.1679 55.9193 26.0569C55.8223 25.9412 55.7011 25.8481 55.5643 25.7842C55.4275 25.7203 55.2784 25.6872 55.1273 25.687H52.3534L52.3543 27.3911ZM26.0793 26.0559C25.9834 26.1671 25.9133 26.2981 25.8737 26.4395C25.8341 26.5808 25.8261 26.7292 25.8503 26.874C26.378 30.0857 28.0797 32.9868 30.6253 35.0149C29.9654 32.5276 29.6362 29.9644 29.6463 27.3911V25.6909H26.8713C26.7209 25.6904 26.5723 25.7228 26.4356 25.7856C26.299 25.8485 26.1778 25.9404 26.0804 26.0549L26.0793 26.0559ZM37.5514 37.1121C37.4124 37.0101 37.3046 36.8713 37.2401 36.7114C37.1757 36.5516 37.157 36.3769 37.1863 36.207L37.6593 33.4241L35.6523 31.4541C35.5295 31.3329 35.4429 31.18 35.4019 31.0125C35.3609 30.8449 35.3673 30.669 35.4203 30.5049C35.4727 30.3409 35.5699 30.195 35.7011 30.0835C35.8322 29.972 35.992 29.8993 36.1623 29.874L38.9353 29.468L40.1753 26.937C40.2503 26.7821 40.3674 26.6515 40.5133 26.5601C40.6591 26.4686 40.8277 26.4202 40.9998 26.4202C41.172 26.4202 41.3406 26.4686 41.4864 26.5601C41.6322 26.6515 41.7493 26.7821 41.8243 26.937L43.0633 29.468L45.8363 29.874C46.0069 29.8998 46.1668 29.9725 46.2982 30.0842C46.4297 30.1959 46.5273 30.3422 46.5802 30.5063C46.6331 30.6705 46.6391 30.8463 46.5976 31.0137C46.5561 31.1811 46.4687 31.3336 46.3453 31.4541L44.3393 33.4241L44.8123 36.207C44.8414 36.3769 44.8227 36.5514 44.7582 36.7112C44.6937 36.871 44.5861 37.0099 44.4474 37.1121C44.2907 37.2268 44.1015 37.2888 43.9073 37.2891C43.7584 37.2896 43.6117 37.2532 43.4803 37.1831L41.0003 35.8689L38.5204 37.1831C38.3688 37.2633 38.1978 37.2992 38.0268 37.2869C37.8558 37.2745 37.6917 37.2142 37.5533 37.113L37.5514 37.1121ZM41.4264 34.0029L42.6863 34.6699L42.4453 33.2571C42.4202 33.1093 42.4312 32.9575 42.4774 32.8149C42.5235 32.6723 42.6035 32.543 42.7104 32.438L43.7303 31.438L42.3224 31.2319C42.1745 31.2103 42.0343 31.1529 41.9137 31.0647C41.7931 30.9765 41.6958 30.8604 41.6303 30.7261L41.0003 29.4399L40.3703 30.7261C40.3049 30.8604 40.2076 30.9765 40.087 31.0647C39.9664 31.1529 39.8261 31.2103 39.6783 31.2319L38.2693 31.438L39.2893 32.438C39.3961 32.5431 39.4758 32.6726 39.5218 32.8152C39.5677 32.9578 39.5785 33.1094 39.5533 33.2571L39.3133 34.6699L40.5733 34.0029C40.705 33.9331 40.8518 33.8967 41.0008 33.8967C41.1499 33.8967 41.2966 33.9331 41.4283 34.0029H41.4264Z" fill="#3DABDD"/>
</svg>
