<svg width="82" height="82" viewBox="0 0 82 82" fill="none" xmlns="http://www.w3.org/2000/svg">
<path d="M54 0H28C12.536 0 0 12.536 0 28V54C0 69.464 12.536 82 28 82H54C69.464 82 82 69.464 82 54V28C82 12.536 69.464 0 54 0Z" fill="#FFF6D3"/>
<path d="M45.5345 46.7781C45.4082 46.7781 45.283 46.7532 45.1663 46.7048C45.0496 46.6565 44.9436 46.5856 44.8542 46.4963C44.7649 46.407 44.694 46.3009 44.6457 46.1842C44.5973 46.0675 44.5724 45.9424 44.5724 45.816C44.5724 45.6897 44.5973 45.5646 44.6457 45.4479C44.694 45.3312 44.7649 45.2251 44.8542 45.1358C44.9436 45.0465 45.0496 44.9756 45.1663 44.9273C45.283 44.8789 45.4082 44.854 45.5345 44.854H49.0724C50.6421 44.86 52.152 44.2521 53.2795 43.16C53.8303 42.63 54.2685 41.9942 54.5677 41.2909C54.867 40.5875 55.0213 39.8309 55.0213 39.0665C55.0213 38.3021 54.867 37.5456 54.5677 36.8422C54.2685 36.1388 53.8303 35.5031 53.2795 34.973C52.152 33.881 50.6421 33.273 49.0724 33.279C48.8464 33.279 48.6415 33.288 48.4615 33.306C48.2615 33.326 48.0615 33.3554 47.8615 33.394C47.6359 33.4408 47.4011 33.4074 47.1974 33.2997C46.9937 33.192 46.8339 33.0168 46.7455 32.8041C46.1578 31.354 45.1447 30.1159 43.8395 29.253C42.3138 28.2476 40.4918 27.7906 38.6722 27.9568C36.8527 28.1231 35.1436 28.9028 33.8254 30.168C33.0965 30.8704 32.5165 31.7124 32.1199 32.6437C31.7234 33.5751 31.5185 34.5768 31.5175 35.589C31.5175 35.614 31.5175 35.64 31.5175 35.665V35.7051C31.5159 35.9627 31.4121 36.2091 31.2289 36.3902C31.0457 36.5714 30.7981 36.6724 30.5405 36.671H30.4855L30.3165 36.663H30.1885C29.0776 36.6593 28.0092 37.0899 27.2115 37.863C26.8215 38.238 26.5112 38.6877 26.2993 39.1855C26.0874 39.6832 25.9781 40.2186 25.9781 40.7595C25.9781 41.3005 26.0874 41.8359 26.2993 42.3336C26.5112 42.8313 26.8215 43.2811 27.2115 43.656C28.0093 44.4291 29.0776 44.8597 30.1885 44.8561H34.9405C35.1956 44.8561 35.4403 44.9574 35.6207 45.1378C35.8011 45.3182 35.9025 45.5629 35.9025 45.818C35.9025 46.0732 35.8011 46.3179 35.6207 46.4983C35.4403 46.6787 35.1956 46.78 34.9405 46.78H30.1885C28.5557 46.7854 26.9854 46.1528 25.8124 45.017C25.2388 44.4664 24.7824 43.8055 24.4706 43.0741C24.1588 42.3426 23.998 41.5557 23.998 40.7605C23.998 39.9654 24.1588 39.1785 24.4706 38.447C24.7824 37.7155 25.2388 37.0546 25.8124 36.504C26.8316 35.5139 28.1579 34.9009 29.5724 34.766C29.7756 32.5009 30.7886 30.3849 32.4255 28.806C34.0733 27.2221 36.2112 26.2462 38.4875 26.039C40.7637 25.8318 43.0427 26.4056 44.9495 27.6661C46.3596 28.5994 47.5016 29.8848 48.2625 31.395C48.5465 31.367 48.8154 31.353 49.0624 31.353C51.1542 31.3462 53.1658 32.1569 54.6685 33.612C55.4024 34.3174 55.9862 35.1637 56.3851 36.1002C56.7839 37.0367 56.9895 38.0441 56.9895 39.062C56.9895 40.08 56.7839 41.0874 56.3851 42.0239C55.9862 42.9604 55.4024 43.8067 54.6685 44.512C53.1658 45.9672 51.1542 46.7778 49.0624 46.771L45.5345 46.7781Z" fill="#333333"/>
<path d="M39.5117 36.1171C39.5117 35.8548 39.6159 35.6032 39.8014 35.4177C39.9869 35.2323 40.2384 35.1281 40.5007 35.1281C40.763 35.1281 41.0145 35.2323 41.2 35.4177C41.3855 35.6032 41.4897 35.8548 41.4897 36.1171V55.0381C41.4897 55.3004 41.3855 55.5519 41.2 55.7374C41.0145 55.9229 40.763 56.0271 40.5007 56.0271C40.2384 56.0271 39.9869 55.9229 39.8014 55.7374C39.6159 55.5519 39.5117 55.3004 39.5117 55.0381V36.1171Z" fill="#333333"/>
<path d="M47.3028 40.7981C47.3941 40.8858 47.4668 40.9911 47.5164 41.1076C47.5661 41.2241 47.5917 41.3494 47.5917 41.4761C47.5917 41.6027 47.5661 41.7281 47.5164 41.8446C47.4668 41.9611 47.3941 42.0663 47.3028 42.1541C47.1153 42.3342 46.8653 42.4348 46.6053 42.4348C46.3453 42.4348 46.0953 42.3342 45.9078 42.1541L40.5078 36.8541L35.1078 42.1541C34.9202 42.3342 34.6703 42.4348 34.4103 42.4348C34.1503 42.4348 33.9003 42.3342 33.7128 42.1541C33.6214 42.0663 33.5487 41.9611 33.4991 41.8446C33.4494 41.7281 33.4238 41.6027 33.4238 41.4761C33.4238 41.3494 33.4494 41.2241 33.4991 41.1076C33.5487 40.9911 33.6214 40.8858 33.7128 40.7981L39.8127 34.8121C40.0003 34.632 40.2502 34.5314 40.5103 34.5314C40.7703 34.5314 41.0202 34.632 41.2078 34.8121L47.3077 40.7981H47.3028Z" fill="#333333"/>
<path d="M39.5117 55.038V37.821L35.0978 42.1508C34.91 42.3324 34.6589 42.434 34.3977 42.434C34.1365 42.434 33.8855 42.3324 33.6978 42.1508C33.6065 42.063 33.5339 41.9578 33.4844 41.8413C33.4348 41.7248 33.4093 41.5995 33.4093 41.4728C33.4093 41.3462 33.4348 41.2209 33.4844 41.1044C33.5339 40.9879 33.6065 40.8827 33.6978 40.7949L39.7977 34.809C39.9856 34.6277 40.2365 34.5263 40.4977 34.5263C40.7588 34.5263 41.0098 34.6277 41.1978 34.809L47.2977 40.7949C47.389 40.8827 47.4615 40.9879 47.5111 41.1044C47.5607 41.2209 47.5862 41.3462 47.5862 41.4728C47.5862 41.5995 47.5607 41.7248 47.5111 41.8413C47.4615 41.9578 47.389 42.063 47.2977 42.1508C47.1104 42.3309 46.8606 42.4316 46.6007 42.4316C46.3409 42.4316 46.0911 42.3309 45.9037 42.1508L41.4897 37.821V55.038C41.4783 55.2926 41.369 55.5328 41.1848 55.7089C41.0006 55.8851 40.7556 55.9833 40.5007 55.9833C40.2459 55.9833 40.0009 55.8851 39.8167 55.7089C39.6324 55.5328 39.5232 55.2926 39.5117 55.038ZM45.5348 46.778C45.2797 46.778 45.0349 46.6767 44.8545 46.4963C44.6741 46.3159 44.5728 46.071 44.5728 45.8159C44.5728 45.5607 44.6741 45.3161 44.8545 45.1357C45.0349 44.9553 45.2797 44.854 45.5348 44.854H49.0718C50.642 44.8602 52.1523 44.2517 53.2798 43.1589C53.8306 42.6288 54.2687 41.9931 54.568 41.2897C54.8673 40.5864 55.0216 39.8298 55.0216 39.0654C55.0216 38.301 54.8673 37.5444 54.568 36.841C54.2687 36.1376 53.8306 35.5019 53.2798 34.9719C52.1519 33.8798 50.6418 33.272 49.0718 33.278C48.8468 33.278 48.6418 33.2869 48.4618 33.3049C48.2604 33.3238 48.06 33.3533 47.8617 33.393C47.6361 33.4395 47.4014 33.4059 47.1978 33.2983C46.9941 33.1906 46.8343 33.0155 46.7457 32.8029C46.1582 31.3525 45.145 30.1141 43.8397 29.2509C42.3142 28.2458 40.4923 27.7888 38.673 27.955C36.8536 28.1213 35.1449 28.901 33.8268 30.166C33.0977 30.8683 32.5176 31.7102 32.1211 32.6416C31.7246 33.5729 31.5196 34.5746 31.5187 35.5869C31.5187 35.6119 31.5187 35.639 31.5187 35.664V35.7041C31.518 35.8316 31.4923 35.9578 31.4429 36.0754C31.3934 36.193 31.3212 36.2996 31.2305 36.3894C31.1397 36.4791 31.0322 36.5502 30.9141 36.5983C30.7959 36.6465 30.6693 36.6707 30.5417 36.6699H30.4867L30.3187 36.663H30.1907C29.0797 36.6588 28.0113 37.0895 27.2137 37.863C26.8237 38.2377 26.5134 38.6874 26.3014 39.185C26.0894 39.6827 25.9801 40.2181 25.9801 40.759C25.9801 41.2999 26.0894 41.8353 26.3014 42.333C26.5134 42.8306 26.8237 43.2802 27.2137 43.655C28.0114 44.4283 29.0797 44.8589 30.1907 44.8549H34.9427C35.1979 44.8549 35.4425 44.9563 35.6229 45.1367C35.8033 45.3171 35.9048 45.5617 35.9048 45.8168C35.9048 46.072 35.8033 46.3169 35.6229 46.4973C35.4425 46.6777 35.1979 46.779 34.9427 46.779H30.1907C28.5576 46.7845 26.9871 46.1519 25.8137 45.0161C25.2408 44.465 24.7851 43.8039 24.4738 43.0725C24.1624 42.3411 24.002 41.5544 24.002 40.7595C24.002 39.9646 24.1624 39.1779 24.4738 38.4465C24.7851 37.7151 25.2408 37.0539 25.8137 36.5029C26.8349 35.5134 28.163 34.9018 29.5787 34.769C29.7817 32.504 30.7943 30.3881 32.4308 28.809C34.0786 27.2251 36.2165 26.2491 38.4928 26.0419C40.7691 25.8347 43.048 26.4085 44.9547 27.6689C46.3651 28.6024 47.5071 29.8882 48.2677 31.3989C48.5517 31.3709 48.8207 31.3569 49.0677 31.3569C51.1598 31.35 53.1717 32.1607 54.6747 33.6159C55.4086 34.3213 55.9925 35.1677 56.3914 36.1042C56.7902 37.0407 56.9958 38.048 56.9958 39.0659C56.9958 40.0838 56.7902 41.0913 56.3914 42.0278C55.9925 42.9643 55.4086 43.8107 54.6747 44.5161C53.1717 45.9713 51.1598 46.7817 49.0677 46.7749L45.5348 46.778Z" fill="#D6AB00"/>
</svg>
