<svg width="123" height="24" viewBox="0 0 123 24" fill="none" xmlns="http://www.w3.org/2000/svg">
<g clip-path="url(#clip0_1_29)">
<path d="M14.268 4.5099L7.134 9.01981L14.268 13.5297L7.134 18.0396L0 13.5053L7.134 8.99543L0 4.5099L7.134 0L14.268 4.5099ZM7.0971 19.4901L14.2311 14.9802L21.3651 19.4901L14.2311 24L7.0971 19.4901ZM14.268 13.5053L21.402 8.99543L14.268 4.5099L21.3651 0L28.4991 4.5099L21.3651 9.01981L28.4991 13.5297L21.3651 18.0396L14.268 13.5053Z" fill="#B7BEC9"/>
<path d="M34.0957 4.50994H39.8644C43.5421 4.50994 46.5802 6.61863 46.5802 11.4333V12.4449C46.5802 17.2961 43.7389 19.478 39.9751 19.478H34.0957V4.50994ZM37.3183 7.22808V16.7476H39.7906C41.8816 16.7476 43.2838 15.3947 43.2838 12.384V11.5917C43.2838 8.58105 41.8078 7.22808 39.6799 7.22808H37.3183ZM48.2899 7.37434H50.8729L51.2911 10.19C51.7831 8.27632 53.0377 7.25245 55.3132 7.25245H56.1127V10.4825H54.7843C52.1644 10.4825 51.5248 11.3845 51.5248 13.9442V19.5145H48.3391V7.37434H48.2899ZM56.7523 13.6882V13.3469C56.7523 9.28801 59.3722 7.06962 62.9392 7.06962C66.58 7.06962 69.1261 9.28801 69.1261 13.3469V13.6882C69.1261 17.674 66.6538 19.8192 62.9392 19.8192C58.9909 19.7827 56.7523 17.6862 56.7523 13.6882ZM65.8666 13.6516V13.3469C65.8666 11.092 64.7227 9.739 62.9023 9.739C61.1188 9.739 59.938 10.9823 59.938 13.3469V13.6516C59.938 15.8335 61.0819 17.0767 62.9023 17.0767C64.7227 17.0402 65.8666 15.8335 65.8666 13.6516ZM70.7989 7.37434H73.4557L73.7632 9.66586C74.4028 8.13006 75.7681 7.06962 77.7853 7.06962C80.8972 7.06962 82.9513 9.288 82.9513 13.3957V13.737C82.9513 17.7227 80.6758 19.8314 77.7853 19.8314C75.8542 19.8314 74.5258 18.966 73.8739 17.5765V23.7075H70.762L70.7989 7.37434ZM79.7164 13.6516V13.3835C79.7164 10.9701 78.4618 9.77556 76.789 9.77556C75.0055 9.77556 73.8247 11.1285 73.8247 13.3835V13.6151C73.8247 15.7603 74.9686 17.1133 76.7521 17.1133C78.5848 17.0767 79.7164 15.9188 79.7164 13.6516ZM87.6622 17.2718L87.3916 19.4901H84.661V3.31543H87.7729V9.51959C88.4617 7.93503 89.827 7.06962 91.7581 7.06962C94.6855 7.10619 96.8503 9.10517 96.8503 13.1275V13.5054C96.8503 17.5277 94.7962 19.8314 91.6843 19.8314C89.6302 19.7827 88.3018 18.8441 87.6622 17.2718ZM93.5785 13.5054V13.2007C93.5785 10.9823 92.3608 9.739 90.6511 9.739C88.9045 9.739 87.6868 11.1285 87.6868 13.2372V13.5054C87.6868 15.7603 88.8676 17.0767 90.6142 17.0767C92.4838 17.0767 93.5785 15.9188 93.5785 13.5054ZM98.2156 13.6882V13.3469C98.2156 9.28801 100.835 7.06962 104.402 7.06962C108.043 7.06962 110.589 9.28801 110.589 13.3469V13.6882C110.589 17.674 108.08 19.8192 104.402 19.8192C100.454 19.7827 98.2156 17.6862 98.2156 13.6882ZM107.354 13.6516V13.3469C107.354 11.092 106.211 9.739 104.39 9.739C102.607 9.739 101.426 10.9823 101.426 13.3469V13.6516C101.426 15.8335 102.57 17.0767 104.39 17.0767C106.223 17.0402 107.354 15.8335 107.354 13.6516ZM114.759 13.2007L110.466 7.37434H114.144L116.616 11.0188L119.126 7.37434H122.766L118.412 13.1641L123 19.4901H119.396L116.592 15.4678L113.861 19.4901H110.097L114.759 13.2007Z" fill="#B7BEC9"/>
</g>
<defs>
<clipPath id="clip0_1_29">
<rect width="123" height="24" fill="white"/>
</clipPath>
</defs>
</svg>
