<svg width="72" height="72" viewBox="0 0 72 72" fill="none" xmlns="http://www.w3.org/2000/svg">
<path fill-rule="evenodd" clip-rule="evenodd" d="M31 0.999936H40.9999C57.5685 0.999936 70.9999 14.4311 70.9999 30.9999V40.9999C70.9999 57.5682 57.5685 70.9998 40.9999 70.9998H31C14.4315 70.9998 0.999936 57.5682 0.999936 40.9999V30.9999C0.999936 14.4311 14.4315 0.999936 31 0.999936Z" fill="white"/>
<path d="M28.09 49.3C26.41 49.3 24.99 48.84 23.83 47.92C22.69 46.98 21.83 45.7 21.25 44.08C20.67 42.46 20.38 40.6 20.38 38.5C20.38 36.4 20.67 34.54 21.25 32.92C21.83 31.3 22.69 30.03 23.83 29.11C24.99 28.17 26.41 27.7 28.09 27.7C29.79 27.7 31.21 28.17 32.35 29.11C33.49 30.03 34.35 31.3 34.93 32.92C35.53 34.54 35.83 36.4 35.83 38.5C35.83 40.6 35.53 42.46 34.93 44.08C34.35 45.7 33.49 46.98 32.35 47.92C31.21 48.84 29.79 49.3 28.09 49.3ZM28.09 46.36C29.53 46.36 30.65 45.68 31.45 44.32C32.27 42.96 32.68 41.02 32.68 38.5C32.68 35.98 32.27 34.04 31.45 32.68C30.65 31.32 29.53 30.64 28.09 30.64C26.65 30.64 25.52 31.32 24.7 32.68C23.9 34.04 23.5 35.98 23.5 38.5C23.5 41.02 23.9 42.96 24.7 44.32C25.52 45.68 26.65 46.36 28.09 46.36ZM47.7827 49V43.3H39.5027L38.1227 40.6L48.4127 28H50.9027V40.33H54.5627V43.3H50.9027V49H47.7827ZM41.9327 40.33H47.7827V33.19L41.9327 40.33Z" fill="#244886"/>
</svg>
