<svg width="25" height="25" viewBox="0 0 25 25" fill="none" xmlns="http://www.w3.org/2000/svg">
<path fill-rule="evenodd" clip-rule="evenodd" d="M12.5 -0.00244141C5.5965 -0.00244141 0 5.59434 0 12.497C0 19.4018 5.5965 24.9981 12.5 24.9981C19.4035 24.9981 25 19.4018 25 12.497C25 5.59434 19.4035 -0.00244141 12.5 -0.00244141ZM16.8203 13.1599L10.5703 17.0669C10.4439 17.1459 10.3 17.1852 10.1563 17.1852C10.0261 17.1852 9.89548 17.1524 9.77749 17.0868C9.52916 16.9497 9.37502 16.6873 9.37502 16.4046V8.59165C9.37502 8.30776 9.52916 8.04593 9.77749 7.90831C10.0258 7.7696 10.3295 7.77767 10.5703 7.92929L16.8203 11.8346C17.0486 11.9782 17.1875 12.2287 17.1875 12.497C17.1875 12.7669 17.0486 13.018 16.8203 13.1599Z" fill="white"/>
</svg>
