<svg width="82" height="82" viewBox="0 0 82 82" fill="none" xmlns="http://www.w3.org/2000/svg">
<path d="M54 0H28C12.536 0 0 12.536 0 28V54C0 69.464 12.536 82 28 82H54C69.464 82 82 69.464 82 54V28C82 12.536 69.464 0 54 0Z" fill="#F4F4FF"/>
<path d="M46.6841 59.6179L43.3681 56.238L40.0511 59.6179C39.9339 59.7378 39.7939 59.8332 39.6393 59.8982C39.4848 59.9632 39.3188 59.9966 39.1511 59.9966C38.9835 59.9966 38.8175 59.9632 38.6629 59.8982C38.5084 59.8332 38.3683 59.7378 38.2511 59.6179C38.0112 59.3718 37.8769 59.0417 37.8769 58.698C37.8769 58.3543 38.0112 58.0242 38.2511 57.7781L41.5681 54.3979L38.2511 51.019C38.0112 50.7729 37.8769 50.4429 37.8769 50.0991C37.8769 49.7554 38.0112 49.4251 38.2511 49.179C38.3684 49.0592 38.5085 48.9641 38.663 48.8992C38.8176 48.8342 38.9835 48.8008 39.1511 48.8008C39.3188 48.8008 39.4847 48.8342 39.6392 48.8992C39.7938 48.9641 39.9338 49.0592 40.0511 49.179L43.3681 52.5591L46.6841 49.179C46.8015 49.0592 46.9415 48.9641 47.096 48.8992C47.2505 48.8342 47.4165 48.8008 47.5841 48.8008C47.7517 48.8008 47.9177 48.8342 48.0723 48.8992C48.2268 48.9641 48.3668 49.0592 48.4841 49.179C48.7238 49.4252 48.858 49.7555 48.858 50.0991C48.858 50.4428 48.7238 50.7728 48.4841 51.019L45.1682 54.3979L48.4841 57.7781C48.7241 58.0242 48.8583 58.3543 48.8583 58.698C48.8583 59.0417 48.7241 59.3718 48.4841 59.6179C48.3669 59.7378 48.2269 59.8332 48.0723 59.8982C47.9178 59.9632 47.7518 59.9966 47.5841 59.9966C47.4164 59.9966 47.2505 59.9632 47.0959 59.8982C46.9414 59.8332 46.8014 59.7378 46.6841 59.6179ZM22.1191 53.78C22.1327 53.0372 22.3654 52.3149 22.788 51.7039C23.2105 51.0928 23.8042 50.6203 24.4944 50.3455C25.1846 50.0706 25.9406 50.0059 26.6675 50.1592C27.3945 50.3125 28.0599 50.6769 28.5804 51.207C29.1008 51.7372 29.4531 52.4093 29.593 53.1389C29.7329 53.8685 29.6542 54.6233 29.3667 55.3083C29.0792 55.9934 28.5958 56.5782 27.9771 56.9895C27.3584 57.4008 26.632 57.6202 25.8891 57.6201C24.8802 57.6103 23.9165 57.2003 23.2097 56.4802C22.503 55.7602 22.1111 54.7889 22.1201 53.78H22.1191ZM25.8911 47.8C25.6308 47.8002 25.3709 47.8182 25.1131 47.854C25.9175 44.9404 27.2422 42.1962 29.0231 39.7539C30.838 37.2641 33.1511 35.1793 35.8152 33.6316C38.4793 32.0839 41.4362 31.1072 44.4981 30.7639L41.7691 28.3459C41.5131 28.117 41.3567 27.7972 41.3332 27.4546C41.3097 27.112 41.4209 26.7737 41.6431 26.512C41.7515 26.3833 41.8846 26.2778 42.0345 26.2014C42.1844 26.1251 42.3481 26.0794 42.5159 26.0674C42.6837 26.0554 42.8522 26.0772 43.0114 26.1313C43.1707 26.1855 43.3175 26.2712 43.4431 26.3831L48.5881 30.9431C48.8442 31.1722 49.0006 31.4922 49.0241 31.835C49.0476 32.1777 48.9364 32.5161 48.7141 32.7781L44.2411 38.0229C44.1328 38.1516 43.9996 38.2574 43.8497 38.3337C43.6997 38.4101 43.536 38.4556 43.3682 38.4675C43.2003 38.4795 43.0318 38.4574 42.8726 38.4031C42.7133 38.3487 42.5666 38.2629 42.4411 38.1509C42.1851 37.9219 42.0287 37.6021 42.0052 37.2595C41.9817 36.9169 42.0929 36.5787 42.3151 36.3169L44.8581 33.335C42.1455 33.6171 39.5223 34.4652 37.1578 35.8242C34.7934 37.1833 32.7402 39.0232 31.1311 41.2251C29.6082 43.3043 28.4494 45.6268 27.7041 48.094C27.1198 47.8994 26.508 47.8002 25.8922 47.8H25.8911ZM53.4591 31.6709C53.4725 30.9281 53.705 30.2059 54.1275 29.5947C54.55 28.9836 55.1436 28.5108 55.8337 28.2358C56.5239 27.9609 57.28 27.8959 58.007 28.0491C58.734 28.2022 59.3995 28.5666 59.9201 29.0967C60.4407 29.6268 60.793 30.2989 60.933 31.0286C61.0729 31.7582 60.9942 32.5129 60.7068 33.198C60.4193 33.8831 59.9359 34.4681 59.3172 34.8794C58.6985 35.2907 57.9721 35.5101 57.2291 35.51C56.2204 35.5002 55.2568 35.0905 54.5501 34.3706C53.8434 33.6508 53.4514 32.6796 53.4601 31.6709H53.4591ZM29.8111 33.8191L26.4941 30.439L23.1781 33.8191C23.0608 33.9388 22.9208 34.0339 22.7662 34.0989C22.6117 34.1638 22.4458 34.1973 22.2781 34.1973C22.1105 34.1973 21.9445 34.1638 21.79 34.0989C21.6354 34.0339 21.4954 33.9388 21.3781 33.8191C21.1382 33.573 21.0039 33.2427 21.0039 32.8989C21.0039 32.5552 21.1382 32.2251 21.3781 31.979L24.6951 28.5991L21.3781 25.22C21.1382 24.9738 21.0039 24.6438 21.0039 24.3C21.0039 23.9563 21.1382 23.626 21.3781 23.3799C21.4953 23.2599 21.6353 23.1647 21.7899 23.0996C21.9444 23.0345 22.1104 23.001 22.2781 23.001C22.4458 23.001 22.6119 23.0345 22.7664 23.0996C22.921 23.1647 23.0609 23.2599 23.1781 23.3799L26.4941 26.76L29.8111 23.3799C29.9283 23.2599 30.0683 23.1647 30.2228 23.0996C30.3774 23.0345 30.5434 23.001 30.7111 23.001C30.8788 23.001 31.0448 23.0345 31.1994 23.0996C31.354 23.1647 31.494 23.2599 31.6111 23.3799C31.8506 23.6263 31.9846 23.9565 31.9846 24.3C31.9846 24.6436 31.8506 24.9736 31.6111 25.22L28.2941 28.6001L31.6101 31.979C31.85 32.2251 31.9843 32.5552 31.9843 32.8989C31.9843 33.2427 31.85 33.573 31.6101 33.8191C31.4929 33.939 31.3529 34.0341 31.1983 34.0991C31.0438 34.1641 30.8778 34.1975 30.7101 34.1975C30.5425 34.1975 30.3765 34.1641 30.2219 34.0991C30.0674 34.0341 29.9274 33.939 29.8101 33.8191H29.8111Z" fill="#5856D6"/>
</svg>
