<svg width="110" height="110" viewBox="0 0 110 110" fill="none" xmlns="http://www.w3.org/2000/svg">
<g clip-path="url(#clip0_1_469)">
<path opacity="0.102" d="M75 0H35C15.67 0 0 15.67 0 35V75C0 94.33 15.67 110 35 110H75C94.33 110 110 94.33 110 75V35C110 15.67 94.33 0 75 0Z" fill="#FF4361"/>
<path d="M56.2274 84.0001C56.1814 84.0001 56.1364 84.0001 56.0904 84.0001C54.1738 83.9988 52.2637 83.7781 50.3973 83.3422C50.153 83.2846 49.9414 83.1324 49.809 82.9191C49.6767 82.7057 49.6343 82.4486 49.6913 82.2041C49.7174 82.0828 49.7675 81.968 49.8384 81.8662C49.9094 81.7645 50 81.6778 50.1048 81.6115C50.2096 81.5451 50.3266 81.5003 50.449 81.4796C50.5713 81.459 50.6966 81.4628 50.8174 81.4911C52.291 81.8306 53.794 82.0269 55.3054 82.0771V80.2001C55.3012 80.0741 55.3225 79.9486 55.3679 79.8311C55.4132 79.7135 55.4818 79.6063 55.5695 79.5157C55.6571 79.4252 55.762 79.3531 55.8781 79.304C55.9941 79.2548 56.1189 79.2295 56.2449 79.2295C56.3709 79.2295 56.4956 79.2548 56.6116 79.304C56.7277 79.3531 56.8326 79.4252 56.9203 79.5157C57.0079 79.6063 57.0765 79.7135 57.1218 79.8311C57.1672 79.9486 57.1885 80.0741 57.1844 80.2001V82.0691C60.6195 81.9112 63.976 80.9888 67.0093 79.3691L66.0834 77.7482C65.9574 77.53 65.9229 77.2708 65.9874 77.0272C66.0518 76.7837 66.21 76.5755 66.4274 76.4481C66.5341 76.3856 66.6523 76.345 66.7749 76.3286C66.8975 76.3122 67.0222 76.3205 67.1416 76.3528C67.261 76.3851 67.3728 76.4408 67.4705 76.5167C67.5681 76.5927 67.6497 76.6874 67.7104 76.7952L68.6334 78.4131C71.5803 76.5188 74.0729 73.9976 75.9333 71.0292L74.3334 70.0951C74.1164 69.9674 73.9586 69.7593 73.8942 69.5159C73.8298 69.2725 73.864 69.0135 73.9894 68.7952C74.0502 68.6875 74.1318 68.5928 74.2294 68.517C74.3271 68.4411 74.4388 68.3854 74.5582 68.3531C74.6776 68.3209 74.8023 68.3127 74.9249 68.329C75.0475 68.3453 75.1655 68.3857 75.2723 68.4481L76.8724 69.3851C78.501 66.2619 79.4154 62.8159 79.5494 59.2961H77.7004C77.4484 59.2961 77.2068 59.196 77.0286 59.0178C76.8505 58.8397 76.7504 58.598 76.7504 58.3461C76.7504 58.0941 76.8505 57.8525 77.0286 57.6743C77.2068 57.4962 77.4484 57.3961 77.7004 57.3961H79.5564C79.4223 53.877 78.508 50.4316 76.8794 47.3091L75.2794 48.2451C75.1373 48.3289 74.9753 48.3731 74.8104 48.3732C74.6448 48.373 74.4823 48.3288 74.3393 48.2454C74.1963 48.1619 74.078 48.0421 73.9963 47.8981C73.8708 47.68 73.8363 47.4212 73.9003 47.1779C73.9644 46.9345 74.1217 46.7262 74.3384 46.5981L75.9384 45.6652C74.078 42.6964 71.5854 40.1747 68.6384 38.2802L67.7154 39.8981C67.6339 40.0425 67.5155 40.1626 67.3723 40.2461C67.229 40.3296 67.0662 40.3734 66.9004 40.3732C66.7355 40.3735 66.5736 40.3296 66.4314 40.2461C66.2143 40.1185 66.0562 39.9105 65.9916 39.6671C65.927 39.4237 65.961 39.1646 66.0864 38.9462L67.0134 37.3241C63.9801 35.7043 60.6235 34.7819 57.1884 34.6241V36.4951C57.1884 36.7444 57.0893 36.9835 56.913 37.1598C56.7367 37.3361 56.4977 37.4352 56.2484 37.4352C55.999 37.4352 55.76 37.3361 55.5837 37.1598C55.4074 36.9835 55.3083 36.7444 55.3083 36.4951V34.6182C55.0324 34.6312 54.7484 34.6491 54.4404 34.6721L53.4314 34.7501C52.553 34.8527 51.6809 35.0043 50.8193 35.2041C50.6985 35.2319 50.5733 35.2355 50.451 35.2146C50.3288 35.1937 50.2119 35.1488 50.1072 35.0824C50.0024 35.016 49.9119 34.9294 49.8409 34.8278C49.7698 34.7261 49.7197 34.6113 49.6934 34.4901C49.6364 34.2456 49.6787 33.9885 49.811 33.7751C49.9434 33.5618 50.155 33.4097 50.3994 33.3522C51.3979 33.1217 52.4094 32.9517 53.4283 32.8431V31.7432H52.0193C51.398 31.7304 50.8065 31.4746 50.3716 31.0306C49.9367 30.5867 49.6931 29.9901 49.6931 29.3687C49.6931 28.7472 49.9367 28.1505 50.3716 27.7065C50.8065 27.2626 51.398 27.0069 52.0193 26.9941H60.4764C61.0977 27.0069 61.6892 27.2626 62.1241 27.7065C62.559 28.1505 62.8026 28.7472 62.8026 29.3687C62.8026 29.9901 62.559 30.5867 62.1241 31.0306C61.6892 31.4746 61.0977 31.7304 60.4764 31.7432H59.0674V32.8751C62.4728 33.2796 65.7585 34.3805 68.7203 36.1091C68.7403 36.1201 68.7614 36.1181 68.7804 36.1301C68.7994 36.1421 68.8094 36.1601 68.8274 36.1721C70.4547 37.1304 71.9703 38.2668 73.3464 39.5602L75.3654 37.5211L74.0364 36.1761L78.0234 32.1461L82.0093 36.1761L78.0234 40.2062L76.6943 38.8632L74.6764 40.9031C75.9574 42.2981 77.0808 43.83 78.0264 45.4711C78.0394 45.4881 78.0564 45.5001 78.0674 45.5181C78.0784 45.5361 78.0773 45.5591 78.0873 45.5791C80.3018 49.4688 81.4662 53.8677 81.4662 58.3436C81.4662 62.8195 80.3018 67.2184 78.0873 71.1082C78.0773 71.1282 78.0784 71.1491 78.0674 71.1681C78.0564 71.1871 78.0284 71.2172 78.0104 71.2432C75.798 75.0729 72.6346 78.2669 68.8264 80.5161C68.8084 80.5281 68.7984 80.5461 68.7794 80.5571C68.7508 80.5714 68.7214 80.5841 68.6913 80.5951C64.9181 82.7917 60.6353 83.9619 56.2693 83.9891C56.2613 83.9891 56.2553 83.9891 56.2463 83.9891C56.2373 83.9891 56.2334 84.0001 56.2274 84.0001ZM76.6884 36.1862L78.0184 37.5311L79.3464 36.1862L78.0184 34.8422L76.6884 36.1862ZM57.1884 32.7251V29.8551H60.4774C60.6033 29.8551 60.7242 29.805 60.8132 29.7159C60.9023 29.6269 60.9524 29.5061 60.9524 29.3801C60.9524 29.2541 60.9023 29.1333 60.8132 29.0442C60.7242 28.9551 60.6033 28.9052 60.4774 28.9052H52.0204C51.8944 28.9052 51.7736 28.9551 51.6845 29.0442C51.5954 29.1333 51.5453 29.2541 51.5453 29.3801C51.5453 29.5061 51.5954 29.6269 51.6845 29.7159C51.7736 29.805 51.8944 29.8551 52.0204 29.8551H55.3004V32.7251C55.4134 32.7201 55.5164 32.7251 55.6254 32.7181C55.7794 32.7181 55.9333 32.7051 56.0873 32.7051H56.1584H56.2404C56.5444 32.7001 56.8563 32.7061 57.1833 32.7201L57.1884 32.7251ZM41.2134 75.4541C40.9614 75.4541 40.7198 75.3541 40.5416 75.1759C40.3635 74.9977 40.2634 74.7561 40.2634 74.5042C40.2634 74.2522 40.3635 74.0106 40.5416 73.8324C40.7198 73.6542 40.9614 73.5541 41.2134 73.5541H47.7903C48.0423 73.5541 48.2839 73.6542 48.4621 73.8324C48.6403 74.0106 48.7404 74.2522 48.7404 74.5042C48.7404 74.7561 48.6403 74.9977 48.4621 75.1759C48.2839 75.3541 48.0423 75.4541 47.7903 75.4541H41.2134ZM35.5754 68.8041C35.3234 68.8041 35.0818 68.704 34.9036 68.5259C34.7255 68.3477 34.6254 68.1061 34.6254 67.8541C34.6254 67.6022 34.7255 67.3605 34.9036 67.1824C35.0818 67.0042 35.3234 66.9042 35.5754 66.9042H47.7914C48.0433 66.9042 48.285 67.0042 48.4631 67.1824C48.6413 67.3605 48.7414 67.6022 48.7414 67.8541C48.7414 68.1061 48.6413 68.3477 48.4631 68.5259C48.285 68.704 48.0433 68.8041 47.7914 68.8041H35.5754ZM54.4103 62.1122C54.068 61.7645 53.8044 61.3474 53.6371 60.889C53.4699 60.4307 53.4029 59.9419 53.4409 59.4554C53.4788 58.969 53.6207 58.4964 53.8569 58.0696C54.0932 57.6427 54.4183 57.2715 54.8104 56.9811L66.9753 48.0812C67.1563 47.9496 67.3785 47.8872 67.6014 47.9055C67.8244 47.9239 68.0334 48.0217 68.1904 48.1812C68.3488 48.3414 68.4456 48.5523 68.4639 48.7769C68.4822 49.0014 68.4208 49.2254 68.2903 49.4092L59.4904 61.7091C59.2079 62.1047 58.8423 62.4338 58.4193 62.6732C57.9962 62.9126 57.5259 63.0566 57.0414 63.0951C56.9524 63.1021 56.8653 63.1061 56.7773 63.1061C56.3354 63.1057 55.898 63.0171 55.4907 62.8456C55.0834 62.674 54.7145 62.4231 54.4054 62.1072L54.4103 62.1122ZM55.9103 58.5171C55.6496 58.7069 55.4577 58.9764 55.3636 59.2849C55.2696 59.5934 55.2786 59.9241 55.3892 60.2271C55.4997 60.53 55.706 60.7887 55.9766 60.9641C56.2473 61.1395 56.5676 61.222 56.8893 61.1991C57.102 61.1821 57.3083 61.1188 57.494 61.0138C57.6797 60.9088 57.8402 60.7645 57.9644 60.5911L63.3314 53.0911L55.9103 58.5171ZM29.9344 62.1531C29.6824 62.1531 29.4408 62.053 29.2626 61.8749C29.0845 61.6967 28.9844 61.4551 28.9844 61.2031C28.9844 60.9512 29.0845 60.7095 29.2626 60.5314C29.4408 60.3532 29.6824 60.2532 29.9344 60.2532H47.7884C48.0403 60.2532 48.282 60.3532 48.4601 60.5314C48.6383 60.7095 48.7383 60.9512 48.7383 61.2031C48.7383 61.4551 48.6383 61.6967 48.4601 61.8749C48.282 62.053 48.0403 62.1531 47.7884 62.1531H29.9344ZM33.6934 55.5042C33.4414 55.5042 33.1998 55.404 33.0216 55.2258C32.8434 55.0477 32.7433 54.806 32.7433 54.5541C32.7433 54.3021 32.8434 54.0605 33.0216 53.8823C33.1998 53.7042 33.4414 53.6041 33.6934 53.6041H47.7884C48.0403 53.6041 48.282 53.7042 48.4601 53.8823C48.6383 54.0605 48.7383 54.3021 48.7383 54.5541C48.7383 54.806 48.6383 55.0477 48.4601 55.2258C48.282 55.404 48.0403 55.5042 47.7884 55.5042H33.6934ZM38.3934 48.8531C38.1414 48.8531 37.8998 48.753 37.7216 48.5748C37.5435 48.3967 37.4434 48.155 37.4434 47.9031C37.4434 47.6511 37.5435 47.4095 37.7216 47.2313C37.8998 47.0532 38.1414 46.9531 38.3934 46.9531H47.7934C48.0454 46.9531 48.2869 47.0532 48.4651 47.2313C48.6432 47.4095 48.7433 47.6511 48.7433 47.9031C48.7433 48.155 48.6432 48.3967 48.4651 48.5748C48.2869 48.753 48.0454 48.8531 47.7934 48.8531H38.3934ZM43.0934 42.2031C42.8414 42.2031 42.5998 42.1031 42.4216 41.9249C42.2435 41.7468 42.1434 41.5051 42.1434 41.2532C42.1434 41.0012 42.2435 40.7596 42.4216 40.5814C42.5998 40.4033 42.8414 40.3031 43.0934 40.3031H47.7934C48.0454 40.3031 48.2869 40.4033 48.4651 40.5814C48.6432 40.7596 48.7433 41.0012 48.7433 41.2532C48.7433 41.5051 48.6432 41.7468 48.4651 41.9249C48.2869 42.1031 48.0454 42.2031 47.7934 42.2031H43.0934Z" fill="#FF4361"/>
</g>
<defs>
<clipPath id="clip0_1_469">
<rect width="110" height="110" fill="white"/>
</clipPath>
</defs>
</svg>
