<svg width="202" height="247" viewBox="0 0 302 347" fill="none" xmlns="http://www.w3.org/2000/svg">
<g opacity="0.4">
<path d="M302 2.81486V4.307H300.047V6.5452H298.746V4.307H296.793V2.81486H298.746V0.57666H300.047V2.81486H302Z" fill="white"/>
<path d="M302 20.7206V22.2128H300.047V24.451H298.746V22.2128H296.793V20.7206H298.746V18.4824H300.047V20.7206H302Z" fill="white"/>
<path d="M302 38.6259V40.118H300.047V42.3562H298.746V40.118H296.793V38.6259H298.746V36.3877H300.047V38.6259H302Z" fill="white"/>
<path d="M302 56.5317V58.0238H300.047V60.262H298.746V58.0238H296.793V56.5317H298.746V54.2935H300.047V56.5317H302Z" fill="white"/>
<path d="M302 74.4374V75.9296H300.047V78.1678H298.746V75.9296H296.793V74.4374H298.746V72.1992H300.047V74.4374H302Z" fill="white"/>
<path d="M302 92.3427V93.8348H300.047V96.073H298.746V93.8348H296.793V92.3427H298.746V90.1045H300.047V92.3427H302Z" fill="white"/>
<path d="M302 110.248V111.741H300.047V113.979H298.746V111.741H296.793V110.248H298.746V108.01H300.047V110.248H302Z" fill="white"/>
<path d="M302 128.154V129.646H300.047V131.885H298.746V129.646H296.793V128.154H298.746V125.916H300.047V128.154H302Z" fill="white"/>
<path d="M302 146.059V147.552H300.047V149.79H298.746V147.552H296.793V146.059H298.746V143.821H300.047V146.059H302Z" fill="white"/>
<path d="M302 163.965V165.457H300.047V167.696H298.746V165.457H296.793V163.965H298.746V161.727H300.047V163.965H302Z" fill="white"/>
<path d="M302 181.871V183.363H300.047V185.601H298.746V183.363H296.793V181.871H298.746V179.632H300.047V181.871H302Z" fill="white"/>
<path d="M302 199.776V201.268H300.047V203.507H298.746V201.268H296.793V199.776H298.746V197.538H300.047V199.776H302Z" fill="white"/>
<path d="M302 217.682V219.174H300.047V221.412H298.746V219.174H296.793V217.682H298.746V215.444H300.047V217.682H302Z" fill="white"/>
<path d="M302 235.588V237.08H300.047V239.318H298.746V237.08H296.793V235.588H298.746V233.35H300.047V235.588H302Z" fill="white"/>
<path d="M302 253.493V254.985H300.047V257.223H298.746V254.985H296.793V253.493H298.746V251.255H300.047V253.493H302Z" fill="white"/>
<path d="M302 271.399V272.891H300.047V275.129H298.746V272.891H296.793V271.399H298.746V269.161H300.047V271.399H302Z" fill="white"/>
<path d="M302 289.304V290.796H300.047V293.035H298.746V290.796H296.793V289.304H298.746V287.066H300.047V289.304H302Z" fill="white"/>
<path d="M302 307.21V308.702H300.047V310.94H298.746V308.702H296.793V307.21H298.746V304.972H300.047V307.21H302Z" fill="white"/>
<path d="M302 325.116V326.608H300.047V328.846H298.746V326.608H296.793V325.116H298.746V322.877H300.047V325.116H302Z" fill="white"/>
<path d="M302 343.021V344.514H300.047V346.752H298.746V344.514H296.793V343.021H298.746V340.783H300.047V343.021H302Z" fill="white"/>
<path d="M286.38 2.81486V4.307H284.427V6.5452H283.125V4.307H281.173V2.81486H283.125V0.57666H284.427V2.81486H286.38Z" fill="white"/>
<path d="M286.38 20.7206V22.2128H284.427V24.451H283.125V22.2128H281.173V20.7206H283.125V18.4824H284.427V20.7206H286.38Z" fill="white"/>
<path d="M286.38 38.6259V40.118H284.427V42.3562H283.125V40.118H281.173V38.6259H283.125V36.3877H284.427V38.6259H286.38Z" fill="white"/>
<path d="M286.38 56.5317V58.0238H284.427V60.262H283.125V58.0238H281.173V56.5317H283.125V54.2935H284.427V56.5317H286.38Z" fill="white"/>
<path d="M286.38 74.4374V75.9296H284.427V78.1678H283.125V75.9296H281.173V74.4374H283.125V72.1992H284.427V74.4374H286.38Z" fill="white"/>
<path d="M286.38 92.3427V93.8348H284.427V96.073H283.125V93.8348H281.173V92.3427H283.125V90.1045H284.427V92.3427H286.38Z" fill="white"/>
<path d="M286.38 110.248V111.741H284.427V113.979H283.125V111.741H281.173V110.248H283.125V108.01H284.427V110.248H286.38Z" fill="white"/>
<path d="M286.38 128.154V129.646H284.427V131.885H283.125V129.646H281.173V128.154H283.125V125.916H284.427V128.154H286.38Z" fill="white"/>
<path d="M286.38 146.059V147.552H284.427V149.79H283.125V147.552H281.173V146.059H283.125V143.821H284.427V146.059H286.38Z" fill="white"/>
<path d="M286.38 163.965V165.457H284.427V167.696H283.125V165.457H281.173V163.965H283.125V161.727H284.427V163.965H286.38Z" fill="white"/>
<path d="M286.38 181.871V183.363H284.427V185.601H283.125V183.363H281.173V181.871H283.125V179.632H284.427V181.871H286.38Z" fill="white"/>
<path d="M286.38 199.776V201.268H284.427V203.507H283.125V201.268H281.173V199.776H283.125V197.538H284.427V199.776H286.38Z" fill="white"/>
<path d="M286.38 217.682V219.174H284.427V221.412H283.125V219.174H281.173V217.682H283.125V215.444H284.427V217.682H286.38Z" fill="white"/>
<path d="M286.38 235.588V237.08H284.427V239.318H283.125V237.08H281.173V235.588H283.125V233.35H284.427V235.588H286.38Z" fill="white"/>
<path d="M286.38 253.493V254.985H284.427V257.223H283.125V254.985H281.173V253.493H283.125V251.255H284.427V253.493H286.38Z" fill="white"/>
<path d="M286.38 271.399V272.891H284.427V275.129H283.125V272.891H281.173V271.399H283.125V269.161H284.427V271.399H286.38Z" fill="white"/>
<path d="M286.38 289.304V290.796H284.427V293.035H283.125V290.796H281.173V289.304H283.125V287.066H284.427V289.304H286.38Z" fill="white"/>
<path d="M286.38 307.21V308.702H284.427V310.94H283.125V308.702H281.173V307.21H283.125V304.972H284.427V307.21H286.38Z" fill="white"/>
<path d="M286.38 325.116V326.608H284.427V328.846H283.125V326.608H281.173V325.116H283.125V322.877H284.427V325.116H286.38Z" fill="white"/>
<path d="M286.38 343.021V344.514H284.427V346.752H283.125V344.514H281.173V343.021H283.125V340.783H284.427V343.021H286.38Z" fill="white"/>
<path d="M270.759 2.81486V4.307H268.806V6.5452H267.504V4.307H265.552V2.81486H267.504V0.57666H268.806V2.81486H270.759Z" fill="white"/>
<path d="M270.759 20.7206V22.2128H268.806V24.451H267.504V22.2128H265.552V20.7206H267.504V18.4824H268.806V20.7206H270.759Z" fill="white"/>
<path d="M270.759 38.6259V40.118H268.806V42.3562H267.504V40.118H265.552V38.6259H267.504V36.3877H268.806V38.6259H270.759Z" fill="white"/>
<path d="M270.759 56.5317V58.0238H268.806V60.262H267.504V58.0238H265.552V56.5317H267.504V54.2935H268.806V56.5317H270.759Z" fill="white"/>
<path d="M270.759 74.4374V75.9296H268.806V78.1678H267.504V75.9296H265.552V74.4374H267.504V72.1992H268.806V74.4374H270.759Z" fill="white"/>
<path d="M270.759 92.3427V93.8348H268.806V96.073H267.504V93.8348H265.552V92.3427H267.504V90.1045H268.806V92.3427H270.759Z" fill="white"/>
<path d="M270.759 110.248V111.741H268.806V113.979H267.504V111.741H265.552V110.248H267.504V108.01H268.806V110.248H270.759Z" fill="white"/>
<path d="M270.759 128.154V129.646H268.806V131.885H267.504V129.646H265.552V128.154H267.504V125.916H268.806V128.154H270.759Z" fill="white"/>
<path d="M270.759 146.059V147.552H268.806V149.79H267.504V147.552H265.552V146.059H267.504V143.821H268.806V146.059H270.759Z" fill="white"/>
<path d="M270.759 163.965V165.457H268.806V167.696H267.504V165.457H265.552V163.965H267.504V161.727H268.806V163.965H270.759Z" fill="white"/>
<path d="M270.759 181.871V183.363H268.806V185.601H267.504V183.363H265.552V181.871H267.504V179.632H268.806V181.871H270.759Z" fill="white"/>
<path d="M270.759 199.776V201.268H268.806V203.507H267.504V201.268H265.552V199.776H267.504V197.538H268.806V199.776H270.759Z" fill="white"/>
<path d="M270.759 217.682V219.174H268.806V221.412H267.504V219.174H265.552V217.682H267.504V215.444H268.806V217.682H270.759Z" fill="white"/>
<path d="M270.759 235.588V237.08H268.806V239.318H267.504V237.08H265.552V235.588H267.504V233.35H268.806V235.588H270.759Z" fill="white"/>
<path d="M270.759 253.493V254.985H268.806V257.223H267.504V254.985H265.552V253.493H267.504V251.255H268.806V253.493H270.759Z" fill="white"/>
<path d="M270.759 271.399V272.891H268.806V275.129H267.504V272.891H265.552V271.399H267.504V269.161H268.806V271.399H270.759Z" fill="white"/>
<path d="M270.759 289.304V290.796H268.806V293.035H267.504V290.796H265.552V289.304H267.504V287.066H268.806V289.304H270.759Z" fill="white"/>
<path d="M270.759 307.21V308.702H268.806V310.94H267.504V308.702H265.552V307.21H267.504V304.972H268.806V307.21H270.759Z" fill="white"/>
<path d="M270.759 325.116V326.608H268.806V328.846H267.504V326.608H265.552V325.116H267.504V322.877H268.806V325.116H270.759Z" fill="white"/>
<path d="M270.759 343.021V344.514H268.806V346.752H267.504V344.514H265.552V343.021H267.504V340.783H268.806V343.021H270.759Z" fill="white"/>
<path d="M255.139 2.81486V4.307H253.186V6.5452H251.884V4.307H249.932V2.81486H251.884V0.57666H253.186V2.81486H255.139Z" fill="white"/>
<path d="M255.139 20.7206V22.2128H253.186V24.451H251.884V22.2128H249.932V20.7206H251.884V18.4824H253.186V20.7206H255.139Z" fill="white"/>
<path d="M255.139 38.6259V40.118H253.186V42.3562H251.884V40.118H249.932V38.6259H251.884V36.3877H253.186V38.6259H255.139Z" fill="white"/>
<path d="M255.139 56.5317V58.0238H253.186V60.262H251.884V58.0238H249.932V56.5317H251.884V54.2935H253.186V56.5317H255.139Z" fill="white"/>
<path d="M255.139 74.4374V75.9296H253.186V78.1678H251.884V75.9296H249.932V74.4374H251.884V72.1992H253.186V74.4374H255.139Z" fill="white"/>
<path d="M255.139 92.3427V93.8348H253.186V96.073H251.884V93.8348H249.932V92.3427H251.884V90.1045H253.186V92.3427H255.139Z" fill="white"/>
<path d="M255.139 110.248V111.741H253.186V113.979H251.884V111.741H249.932V110.248H251.884V108.01H253.186V110.248H255.139Z" fill="white"/>
<path d="M255.139 128.154V129.646H253.186V131.885H251.884V129.646H249.932V128.154H251.884V125.916H253.186V128.154H255.139Z" fill="white"/>
<path d="M255.139 146.059V147.552H253.186V149.79H251.884V147.552H249.932V146.059H251.884V143.821H253.186V146.059H255.139Z" fill="white"/>
<path d="M255.139 163.965V165.457H253.186V167.696H251.884V165.457H249.932V163.965H251.884V161.727H253.186V163.965H255.139Z" fill="white"/>
<path d="M255.139 181.871V183.363H253.186V185.601H251.884V183.363H249.932V181.871H251.884V179.632H253.186V181.871H255.139Z" fill="white"/>
<path d="M255.139 199.776V201.268H253.186V203.507H251.884V201.268H249.932V199.776H251.884V197.538H253.186V199.776H255.139Z" fill="white"/>
<path d="M255.139 217.682V219.174H253.186V221.412H251.884V219.174H249.932V217.682H251.884V215.444H253.186V217.682H255.139Z" fill="white"/>
<path d="M255.139 235.588V237.08H253.186V239.318H251.884V237.08H249.932V235.588H251.884V233.35H253.186V235.588H255.139Z" fill="white"/>
<path d="M255.139 253.493V254.985H253.186V257.223H251.884V254.985H249.932V253.493H251.884V251.255H253.186V253.493H255.139Z" fill="white"/>
<path d="M255.139 271.399V272.891H253.186V275.129H251.884V272.891H249.932V271.399H251.884V269.161H253.186V271.399H255.139Z" fill="white"/>
<path d="M255.139 289.304V290.796H253.186V293.035H251.884V290.796H249.932V289.304H251.884V287.066H253.186V289.304H255.139Z" fill="white"/>
<path d="M255.139 307.21V308.702H253.186V310.94H251.884V308.702H249.932V307.21H251.884V304.972H253.186V307.21H255.139Z" fill="white"/>
<path d="M255.139 325.116V326.608H253.186V328.846H251.884V326.608H249.932V325.116H251.884V322.877H253.186V325.116H255.139Z" fill="white"/>
<path d="M255.139 343.021V344.514H253.186V346.752H251.884V344.514H249.932V343.021H251.884V340.783H253.186V343.021H255.139Z" fill="white"/>
<path d="M239.518 2.81486V4.307H237.565V6.5452H236.263V4.307H234.311V2.81486H236.263V0.57666H237.565V2.81486H239.518Z" fill="white"/>
<path d="M239.518 20.7206V22.2128H237.565V24.451H236.263V22.2128H234.311V20.7206H236.263V18.4824H237.565V20.7206H239.518Z" fill="white"/>
<path d="M239.518 38.6259V40.118H237.565V42.3562H236.263V40.118H234.311V38.6259H236.263V36.3877H237.565V38.6259H239.518Z" fill="white"/>
<path d="M239.518 56.5317V58.0238H237.565V60.262H236.263V58.0238H234.311V56.5317H236.263V54.2935H237.565V56.5317H239.518Z" fill="white"/>
<path d="M239.518 74.4374V75.9296H237.565V78.1678H236.263V75.9296H234.311V74.4374H236.263V72.1992H237.565V74.4374H239.518Z" fill="white"/>
<path d="M239.518 92.3427V93.8348H237.565V96.073H236.263V93.8348H234.311V92.3427H236.263V90.1045H237.565V92.3427H239.518Z" fill="white"/>
<path d="M239.518 110.248V111.741H237.565V113.979H236.263V111.741H234.311V110.248H236.263V108.01H237.565V110.248H239.518Z" fill="white"/>
<path d="M239.518 128.154V129.646H237.565V131.885H236.263V129.646H234.311V128.154H236.263V125.916H237.565V128.154H239.518Z" fill="white"/>
<path d="M239.518 146.059V147.552H237.565V149.79H236.263V147.552H234.311V146.059H236.263V143.821H237.565V146.059H239.518Z" fill="white"/>
<path d="M239.518 163.965V165.457H237.565V167.696H236.263V165.457H234.311V163.965H236.263V161.727H237.565V163.965H239.518Z" fill="white"/>
<path d="M239.518 181.871V183.363H237.565V185.601H236.263V183.363H234.311V181.871H236.263V179.632H237.565V181.871H239.518Z" fill="white"/>
<path d="M239.518 199.776V201.268H237.565V203.507H236.263V201.268H234.311V199.776H236.263V197.538H237.565V199.776H239.518Z" fill="white"/>
<path d="M239.518 217.682V219.174H237.565V221.412H236.263V219.174H234.311V217.682H236.263V215.444H237.565V217.682H239.518Z" fill="white"/>
<path d="M239.518 235.588V237.08H237.565V239.318H236.263V237.08H234.311V235.588H236.263V233.35H237.565V235.588H239.518Z" fill="white"/>
<path d="M239.518 253.493V254.985H237.565V257.223H236.263V254.985H234.311V253.493H236.263V251.255H237.565V253.493H239.518Z" fill="white"/>
<path d="M239.518 271.399V272.891H237.565V275.129H236.263V272.891H234.311V271.399H236.263V269.161H237.565V271.399H239.518Z" fill="white"/>
<path d="M239.518 289.304V290.796H237.565V293.035H236.263V290.796H234.311V289.304H236.263V287.066H237.565V289.304H239.518Z" fill="white"/>
<path d="M239.518 307.21V308.702H237.565V310.94H236.263V308.702H234.311V307.21H236.263V304.972H237.565V307.21H239.518Z" fill="white"/>
<path d="M239.518 325.116V326.608H237.565V328.846H236.263V326.608H234.311V325.116H236.263V322.877H237.565V325.116H239.518Z" fill="white"/>
<path d="M239.518 343.021V344.514H237.565V346.752H236.263V344.514H234.311V343.021H236.263V340.783H237.565V343.021H239.518Z" fill="white"/>
<path d="M223.896 2.81486V4.307H221.944V6.5452H220.642V4.307H218.689V2.81486H220.642V0.57666H221.944V2.81486H223.896Z" fill="white"/>
<path d="M223.896 20.7206V22.2128H221.944V24.451H220.642V22.2128H218.689V20.7206H220.642V18.4824H221.944V20.7206H223.896Z" fill="white"/>
<path d="M223.896 38.6259V40.118H221.944V42.3562H220.642V40.118H218.689V38.6259H220.642V36.3877H221.944V38.6259H223.896Z" fill="white"/>
<path d="M223.896 56.5317V58.0238H221.944V60.262H220.642V58.0238H218.689V56.5317H220.642V54.2935H221.944V56.5317H223.896Z" fill="white"/>
<path d="M223.896 74.4374V75.9296H221.944V78.1678H220.642V75.9296H218.689V74.4374H220.642V72.1992H221.944V74.4374H223.896Z" fill="white"/>
<path d="M223.896 92.3427V93.8348H221.944V96.073H220.642V93.8348H218.689V92.3427H220.642V90.1045H221.944V92.3427H223.896Z" fill="white"/>
<path d="M223.896 110.248V111.741H221.944V113.979H220.642V111.741H218.689V110.248H220.642V108.01H221.944V110.248H223.896Z" fill="white"/>
<path d="M223.896 128.154V129.646H221.944V131.885H220.642V129.646H218.689V128.154H220.642V125.916H221.944V128.154H223.896Z" fill="white"/>
<path d="M223.896 146.059V147.552H221.944V149.79H220.642V147.552H218.689V146.059H220.642V143.821H221.944V146.059H223.896Z" fill="white"/>
<path d="M223.896 163.965V165.457H221.944V167.696H220.642V165.457H218.689V163.965H220.642V161.727H221.944V163.965H223.896Z" fill="white"/>
<path d="M223.896 181.871V183.363H221.944V185.601H220.642V183.363H218.689V181.871H220.642V179.632H221.944V181.871H223.896Z" fill="white"/>
<path d="M223.896 199.776V201.268H221.944V203.507H220.642V201.268H218.689V199.776H220.642V197.538H221.944V199.776H223.896Z" fill="white"/>
<path d="M223.896 217.682V219.174H221.944V221.412H220.642V219.174H218.689V217.682H220.642V215.444H221.944V217.682H223.896Z" fill="white"/>
<path d="M223.896 235.588V237.08H221.944V239.318H220.642V237.08H218.689V235.588H220.642V233.35H221.944V235.588H223.896Z" fill="white"/>
<path d="M223.896 253.493V254.985H221.944V257.223H220.642V254.985H218.689V253.493H220.642V251.255H221.944V253.493H223.896Z" fill="white"/>
<path d="M223.896 271.399V272.891H221.944V275.129H220.642V272.891H218.689V271.399H220.642V269.161H221.944V271.399H223.896Z" fill="white"/>
<path d="M223.896 289.304V290.796H221.944V293.035H220.642V290.796H218.689V289.304H220.642V287.066H221.944V289.304H223.896Z" fill="white"/>
<path d="M223.896 307.21V308.702H221.944V310.94H220.642V308.702H218.689V307.21H220.642V304.972H221.944V307.21H223.896Z" fill="white"/>
<path d="M223.896 325.116V326.608H221.944V328.846H220.642V326.608H218.689V325.116H220.642V322.877H221.944V325.116H223.896Z" fill="white"/>
<path d="M223.896 343.021V344.514H221.944V346.752H220.642V344.514H218.689V343.021H220.642V340.783H221.944V343.021H223.896Z" fill="white"/>
<path d="M208.276 2.81486V4.307H206.324V6.5452H205.022V4.307H203.069V2.81486H205.022V0.57666H206.324V2.81486H208.276Z" fill="white"/>
<path d="M208.276 20.7206V22.2128H206.324V24.451H205.022V22.2128H203.069V20.7206H205.022V18.4824H206.324V20.7206H208.276Z" fill="white"/>
<path d="M208.276 38.6259V40.118H206.324V42.3562H205.022V40.118H203.069V38.6259H205.022V36.3877H206.324V38.6259H208.276Z" fill="white"/>
<path d="M208.276 56.5317V58.0238H206.324V60.262H205.022V58.0238H203.069V56.5317H205.022V54.2935H206.324V56.5317H208.276Z" fill="white"/>
<path d="M208.276 74.4374V75.9296H206.324V78.1678H205.022V75.9296H203.069V74.4374H205.022V72.1992H206.324V74.4374H208.276Z" fill="white"/>
<path d="M208.276 92.3427V93.8348H206.324V96.073H205.022V93.8348H203.069V92.3427H205.022V90.1045H206.324V92.3427H208.276Z" fill="white"/>
<path d="M208.276 110.248V111.741H206.324V113.979H205.022V111.741H203.069V110.248H205.022V108.01H206.324V110.248H208.276Z" fill="white"/>
<path d="M208.276 128.154V129.646H206.324V131.885H205.022V129.646H203.069V128.154H205.022V125.916H206.324V128.154H208.276Z" fill="white"/>
<path d="M208.276 146.059V147.552H206.324V149.79H205.022V147.552H203.069V146.059H205.022V143.821H206.324V146.059H208.276Z" fill="white"/>
<path d="M208.276 163.965V165.457H206.324V167.696H205.022V165.457H203.069V163.965H205.022V161.727H206.324V163.965H208.276Z" fill="white"/>
<path d="M208.276 181.871V183.363H206.324V185.601H205.022V183.363H203.069V181.871H205.022V179.632H206.324V181.871H208.276Z" fill="white"/>
<path d="M208.276 199.776V201.268H206.324V203.507H205.022V201.268H203.069V199.776H205.022V197.538H206.324V199.776H208.276Z" fill="white"/>
<path d="M208.276 217.682V219.174H206.324V221.412H205.022V219.174H203.069V217.682H205.022V215.444H206.324V217.682H208.276Z" fill="white"/>
<path d="M208.276 235.588V237.08H206.324V239.318H205.022V237.08H203.069V235.588H205.022V233.35H206.324V235.588H208.276Z" fill="white"/>
<path d="M208.276 253.493V254.985H206.324V257.223H205.022V254.985H203.069V253.493H205.022V251.255H206.324V253.493H208.276Z" fill="white"/>
<path d="M208.276 271.399V272.891H206.324V275.129H205.022V272.891H203.069V271.399H205.022V269.161H206.324V271.399H208.276Z" fill="white"/>
<path d="M208.276 289.304V290.796H206.324V293.035H205.022V290.796H203.069V289.304H205.022V287.066H206.324V289.304H208.276Z" fill="white"/>
<path d="M208.276 307.21V308.702H206.324V310.94H205.022V308.702H203.069V307.21H205.022V304.972H206.324V307.21H208.276Z" fill="white"/>
<path d="M208.276 325.116V326.608H206.324V328.846H205.022V326.608H203.069V325.116H205.022V322.877H206.324V325.116H208.276Z" fill="white"/>
<path d="M208.276 343.021V344.514H206.324V346.752H205.022V344.514H203.069V343.021H205.022V340.783H206.324V343.021H208.276Z" fill="white"/>
<path d="M192.655 2.81486V4.307H190.703V6.5452H189.401V4.307H187.448V2.81486H189.401V0.57666H190.703V2.81486H192.655Z" fill="white"/>
<path d="M192.655 20.7206V22.2128H190.703V24.451H189.401V22.2128H187.448V20.7206H189.401V18.4824H190.703V20.7206H192.655Z" fill="white"/>
<path d="M192.655 38.6259V40.118H190.703V42.3562H189.401V40.118H187.448V38.6259H189.401V36.3877H190.703V38.6259H192.655Z" fill="white"/>
<path d="M192.655 56.5317V58.0238H190.703V60.262H189.401V58.0238H187.448V56.5317H189.401V54.2935H190.703V56.5317H192.655Z" fill="white"/>
<path d="M192.655 74.4374V75.9296H190.703V78.1678H189.401V75.9296H187.448V74.4374H189.401V72.1992H190.703V74.4374H192.655Z" fill="white"/>
<path d="M192.655 92.3427V93.8348H190.703V96.073H189.401V93.8348H187.448V92.3427H189.401V90.1045H190.703V92.3427H192.655Z" fill="white"/>
<path d="M192.655 110.248V111.741H190.703V113.979H189.401V111.741H187.448V110.248H189.401V108.01H190.703V110.248H192.655Z" fill="white"/>
<path d="M192.655 128.154V129.646H190.703V131.885H189.401V129.646H187.448V128.154H189.401V125.916H190.703V128.154H192.655Z" fill="white"/>
<path d="M192.655 146.059V147.552H190.703V149.79H189.401V147.552H187.448V146.059H189.401V143.821H190.703V146.059H192.655Z" fill="white"/>
<path d="M192.655 163.965V165.457H190.703V167.696H189.401V165.457H187.448V163.965H189.401V161.727H190.703V163.965H192.655Z" fill="white"/>
<path d="M192.655 181.871V183.363H190.703V185.601H189.401V183.363H187.448V181.871H189.401V179.632H190.703V181.871H192.655Z" fill="white"/>
<path d="M192.655 199.776V201.268H190.703V203.507H189.401V201.268H187.448V199.776H189.401V197.538H190.703V199.776H192.655Z" fill="white"/>
<path d="M192.655 217.682V219.174H190.703V221.412H189.401V219.174H187.448V217.682H189.401V215.444H190.703V217.682H192.655Z" fill="white"/>
<path d="M192.655 235.588V237.08H190.703V239.318H189.401V237.08H187.448V235.588H189.401V233.35H190.703V235.588H192.655Z" fill="white"/>
<path d="M192.655 253.493V254.985H190.703V257.223H189.401V254.985H187.448V253.493H189.401V251.255H190.703V253.493H192.655Z" fill="white"/>
<path d="M192.655 271.399V272.891H190.703V275.129H189.401V272.891H187.448V271.399H189.401V269.161H190.703V271.399H192.655Z" fill="white"/>
<path d="M192.655 289.304V290.796H190.703V293.035H189.401V290.796H187.448V289.304H189.401V287.066H190.703V289.304H192.655Z" fill="white"/>
<path d="M192.655 307.21V308.702H190.703V310.94H189.401V308.702H187.448V307.21H189.401V304.972H190.703V307.21H192.655Z" fill="white"/>
<path d="M192.655 325.116V326.608H190.703V328.846H189.401V326.608H187.448V325.116H189.401V322.877H190.703V325.116H192.655Z" fill="white"/>
<path d="M192.655 343.021V344.514H190.703V346.752H189.401V344.514H187.448V343.021H189.401V340.783H190.703V343.021H192.655Z" fill="white"/>
<path d="M177.035 2.81486V4.307H175.082V6.5452H173.781V4.307H171.828V2.81486H173.781V0.57666H175.082V2.81486H177.035Z" fill="white"/>
<path d="M177.035 20.7206V22.2128H175.082V24.451H173.781V22.2128H171.828V20.7206H173.781V18.4824H175.082V20.7206H177.035Z" fill="white"/>
<path d="M177.035 38.6259V40.118H175.082V42.3562H173.781V40.118H171.828V38.6259H173.781V36.3877H175.082V38.6259H177.035Z" fill="white"/>
<path d="M177.035 56.5317V58.0238H175.082V60.262H173.781V58.0238H171.828V56.5317H173.781V54.2935H175.082V56.5317H177.035Z" fill="white"/>
<path d="M177.035 74.4374V75.9296H175.082V78.1678H173.781V75.9296H171.828V74.4374H173.781V72.1992H175.082V74.4374H177.035Z" fill="white"/>
<path d="M177.035 92.3427V93.8348H175.082V96.073H173.781V93.8348H171.828V92.3427H173.781V90.1045H175.082V92.3427H177.035Z" fill="white"/>
<path d="M177.035 110.248V111.741H175.082V113.979H173.781V111.741H171.828V110.248H173.781V108.01H175.082V110.248H177.035Z" fill="white"/>
<path d="M177.035 128.154V129.646H175.082V131.885H173.781V129.646H171.828V128.154H173.781V125.916H175.082V128.154H177.035Z" fill="white"/>
<path d="M177.035 146.059V147.552H175.082V149.79H173.781V147.552H171.828V146.059H173.781V143.821H175.082V146.059H177.035Z" fill="white"/>
<path d="M177.035 163.965V165.457H175.082V167.696H173.781V165.457H171.828V163.965H173.781V161.727H175.082V163.965H177.035Z" fill="white"/>
<path d="M177.035 181.871V183.363H175.082V185.601H173.781V183.363H171.828V181.871H173.781V179.632H175.082V181.871H177.035Z" fill="white"/>
<path d="M177.035 199.776V201.268H175.082V203.507H173.781V201.268H171.828V199.776H173.781V197.538H175.082V199.776H177.035Z" fill="white"/>
<path d="M177.035 217.682V219.174H175.082V221.412H173.781V219.174H171.828V217.682H173.781V215.444H175.082V217.682H177.035Z" fill="white"/>
<path d="M177.035 235.588V237.08H175.082V239.318H173.781V237.08H171.828V235.588H173.781V233.35H175.082V235.588H177.035Z" fill="white"/>
<path d="M177.035 253.493V254.985H175.082V257.223H173.781V254.985H171.828V253.493H173.781V251.255H175.082V253.493H177.035Z" fill="white"/>
<path d="M177.035 271.399V272.891H175.082V275.129H173.781V272.891H171.828V271.399H173.781V269.161H175.082V271.399H177.035Z" fill="white"/>
<path d="M177.035 289.304V290.796H175.082V293.035H173.781V290.796H171.828V289.304H173.781V287.066H175.082V289.304H177.035Z" fill="white"/>
<path d="M177.035 307.21V308.702H175.082V310.94H173.781V308.702H171.828V307.21H173.781V304.972H175.082V307.21H177.035Z" fill="white"/>
<path d="M177.035 325.116V326.608H175.082V328.846H173.781V326.608H171.828V325.116H173.781V322.877H175.082V325.116H177.035Z" fill="white"/>
<path d="M177.035 343.021V344.514H175.082V346.752H173.781V344.514H171.828V343.021H173.781V340.783H175.082V343.021H177.035Z" fill="white"/>
<path d="M161.414 2.81486V4.307H159.461V6.5452H158.16V4.307H156.207V2.81486H158.16V0.57666H159.461V2.81486H161.414Z" fill="white"/>
<path d="M161.414 20.7206V22.2128H159.461V24.451H158.16V22.2128H156.207V20.7206H158.16V18.4824H159.461V20.7206H161.414Z" fill="white"/>
<path d="M161.414 38.6259V40.118H159.461V42.3562H158.16V40.118H156.207V38.6259H158.16V36.3877H159.461V38.6259H161.414Z" fill="white"/>
<path d="M161.414 56.5317V58.0238H159.461V60.262H158.16V58.0238H156.207V56.5317H158.16V54.2935H159.461V56.5317H161.414Z" fill="white"/>
<path d="M161.414 74.4374V75.9296H159.461V78.1678H158.16V75.9296H156.207V74.4374H158.16V72.1992H159.461V74.4374H161.414Z" fill="white"/>
<path d="M161.414 92.3427V93.8348H159.461V96.073H158.16V93.8348H156.207V92.3427H158.16V90.1045H159.461V92.3427H161.414Z" fill="white"/>
<path d="M161.414 110.248V111.741H159.461V113.979H158.16V111.741H156.207V110.248H158.16V108.01H159.461V110.248H161.414Z" fill="white"/>
<path d="M161.414 128.154V129.646H159.461V131.885H158.16V129.646H156.207V128.154H158.16V125.916H159.461V128.154H161.414Z" fill="white"/>
<path d="M161.414 146.059V147.552H159.461V149.79H158.16V147.552H156.207V146.059H158.16V143.821H159.461V146.059H161.414Z" fill="white"/>
<path d="M161.414 163.965V165.457H159.461V167.696H158.16V165.457H156.207V163.965H158.16V161.727H159.461V163.965H161.414Z" fill="white"/>
<path d="M161.414 181.871V183.363H159.461V185.601H158.16V183.363H156.207V181.871H158.16V179.632H159.461V181.871H161.414Z" fill="white"/>
<path d="M161.414 199.776V201.268H159.461V203.507H158.16V201.268H156.207V199.776H158.16V197.538H159.461V199.776H161.414Z" fill="white"/>
<path d="M161.414 217.682V219.174H159.461V221.412H158.16V219.174H156.207V217.682H158.16V215.444H159.461V217.682H161.414Z" fill="white"/>
<path d="M161.414 235.588V237.08H159.461V239.318H158.16V237.08H156.207V235.588H158.16V233.35H159.461V235.588H161.414Z" fill="white"/>
<path d="M161.414 253.493V254.985H159.461V257.223H158.16V254.985H156.207V253.493H158.16V251.255H159.461V253.493H161.414Z" fill="white"/>
<path d="M161.414 271.399V272.891H159.461V275.129H158.16V272.891H156.207V271.399H158.16V269.161H159.461V271.399H161.414Z" fill="white"/>
<path d="M161.414 289.304V290.796H159.461V293.035H158.16V290.796H156.207V289.304H158.16V287.066H159.461V289.304H161.414Z" fill="white"/>
<path d="M161.414 307.21V308.702H159.461V310.94H158.16V308.702H156.207V307.21H158.16V304.972H159.461V307.21H161.414Z" fill="white"/>
<path d="M161.414 325.116V326.608H159.461V328.846H158.16V326.608H156.207V325.116H158.16V322.877H159.461V325.116H161.414Z" fill="white"/>
<path d="M161.414 343.021V344.514H159.461V346.752H158.16V344.514H156.207V343.021H158.16V340.783H159.461V343.021H161.414Z" fill="white"/>
<path d="M145.793 2.81486V4.307H143.84V6.5452H142.539V4.307H140.586V2.81486H142.539V0.57666H143.84V2.81486H145.793Z" fill="white"/>
<path d="M145.793 20.7206V22.2128H143.84V24.451H142.539V22.2128H140.586V20.7206H142.539V18.4824H143.84V20.7206H145.793Z" fill="white"/>
<path d="M145.793 38.6259V40.118H143.84V42.3562H142.539V40.118H140.586V38.6259H142.539V36.3877H143.84V38.6259H145.793Z" fill="white"/>
<path d="M145.793 56.5317V58.0238H143.84V60.262H142.539V58.0238H140.586V56.5317H142.539V54.2935H143.84V56.5317H145.793Z" fill="white"/>
<path d="M145.793 74.4374V75.9296H143.84V78.1678H142.539V75.9296H140.586V74.4374H142.539V72.1992H143.84V74.4374H145.793Z" fill="white"/>
<path d="M145.793 92.3427V93.8348H143.84V96.073H142.539V93.8348H140.586V92.3427H142.539V90.1045H143.84V92.3427H145.793Z" fill="white"/>
<path d="M145.793 110.248V111.741H143.84V113.979H142.539V111.741H140.586V110.248H142.539V108.01H143.84V110.248H145.793Z" fill="white"/>
<path d="M145.793 128.154V129.646H143.84V131.885H142.539V129.646H140.586V128.154H142.539V125.916H143.84V128.154H145.793Z" fill="white"/>
<path d="M145.793 146.059V147.552H143.84V149.79H142.539V147.552H140.586V146.059H142.539V143.821H143.84V146.059H145.793Z" fill="white"/>
<path d="M145.793 163.965V165.457H143.84V167.696H142.539V165.457H140.586V163.965H142.539V161.727H143.84V163.965H145.793Z" fill="white"/>
<path d="M145.793 181.871V183.363H143.84V185.601H142.539V183.363H140.586V181.871H142.539V179.632H143.84V181.871H145.793Z" fill="white"/>
<path d="M145.793 199.776V201.268H143.84V203.507H142.539V201.268H140.586V199.776H142.539V197.538H143.84V199.776H145.793Z" fill="white"/>
<path d="M145.793 217.682V219.174H143.84V221.412H142.539V219.174H140.586V217.682H142.539V215.444H143.84V217.682H145.793Z" fill="white"/>
<path d="M145.793 235.588V237.08H143.84V239.318H142.539V237.08H140.586V235.588H142.539V233.35H143.84V235.588H145.793Z" fill="white"/>
<path d="M145.793 253.493V254.985H143.84V257.223H142.539V254.985H140.586V253.493H142.539V251.255H143.84V253.493H145.793Z" fill="white"/>
<path d="M145.793 271.399V272.891H143.84V275.129H142.539V272.891H140.586V271.399H142.539V269.161H143.84V271.399H145.793Z" fill="white"/>
<path d="M145.793 289.304V290.796H143.84V293.035H142.539V290.796H140.586V289.304H142.539V287.066H143.84V289.304H145.793Z" fill="white"/>
<path d="M145.793 307.21V308.702H143.84V310.94H142.539V308.702H140.586V307.21H142.539V304.972H143.84V307.21H145.793Z" fill="white"/>
<path d="M145.793 325.116V326.608H143.84V328.846H142.539V326.608H140.586V325.116H142.539V322.877H143.84V325.116H145.793Z" fill="white"/>
<path d="M145.793 343.021V344.514H143.84V346.752H142.539V344.514H140.586V343.021H142.539V340.783H143.84V343.021H145.793Z" fill="white"/>
<path d="M130.173 2.81486V4.307H128.22V6.5452H126.918V4.307H124.966V2.81486H126.918V0.57666H128.22V2.81486H130.173Z" fill="white"/>
<path d="M130.173 20.7206V22.2128H128.22V24.451H126.918V22.2128H124.966V20.7206H126.918V18.4824H128.22V20.7206H130.173Z" fill="white"/>
<path d="M130.173 38.6259V40.118H128.22V42.3562H126.918V40.118H124.966V38.6259H126.918V36.3877H128.22V38.6259H130.173Z" fill="white"/>
<path d="M130.173 56.5317V58.0238H128.22V60.262H126.918V58.0238H124.966V56.5317H126.918V54.2935H128.22V56.5317H130.173Z" fill="white"/>
<path d="M130.173 74.4374V75.9296H128.22V78.1678H126.918V75.9296H124.966V74.4374H126.918V72.1992H128.22V74.4374H130.173Z" fill="white"/>
<path d="M130.173 92.3427V93.8348H128.22V96.073H126.918V93.8348H124.966V92.3427H126.918V90.1045H128.22V92.3427H130.173Z" fill="white"/>
<path d="M130.173 110.248V111.741H128.22V113.979H126.918V111.741H124.966V110.248H126.918V108.01H128.22V110.248H130.173Z" fill="white"/>
<path d="M130.173 128.154V129.646H128.22V131.885H126.918V129.646H124.966V128.154H126.918V125.916H128.22V128.154H130.173Z" fill="white"/>
<path d="M130.173 146.059V147.552H128.22V149.79H126.918V147.552H124.966V146.059H126.918V143.821H128.22V146.059H130.173Z" fill="white"/>
<path d="M130.173 163.965V165.457H128.22V167.696H126.918V165.457H124.966V163.965H126.918V161.727H128.22V163.965H130.173Z" fill="white"/>
<path d="M130.173 181.871V183.363H128.22V185.601H126.918V183.363H124.966V181.871H126.918V179.632H128.22V181.871H130.173Z" fill="white"/>
<path d="M130.173 199.776V201.268H128.22V203.507H126.918V201.268H124.966V199.776H126.918V197.538H128.22V199.776H130.173Z" fill="white"/>
<path d="M130.173 217.682V219.174H128.22V221.412H126.918V219.174H124.966V217.682H126.918V215.444H128.22V217.682H130.173Z" fill="white"/>
<path d="M130.173 235.588V237.08H128.22V239.318H126.918V237.08H124.966V235.588H126.918V233.35H128.22V235.588H130.173Z" fill="white"/>
<path d="M130.173 253.493V254.985H128.22V257.223H126.918V254.985H124.966V253.493H126.918V251.255H128.22V253.493H130.173Z" fill="white"/>
<path d="M130.173 271.399V272.891H128.22V275.129H126.918V272.891H124.966V271.399H126.918V269.161H128.22V271.399H130.173Z" fill="white"/>
<path d="M130.173 289.304V290.796H128.22V293.035H126.918V290.796H124.966V289.304H126.918V287.066H128.22V289.304H130.173Z" fill="white"/>
<path d="M130.173 307.21V308.702H128.22V310.94H126.918V308.702H124.966V307.21H126.918V304.972H128.22V307.21H130.173Z" fill="white"/>
<path d="M130.173 325.116V326.608H128.22V328.846H126.918V326.608H124.966V325.116H126.918V322.877H128.22V325.116H130.173Z" fill="white"/>
<path d="M130.173 343.021V344.514H128.22V346.752H126.918V344.514H124.966V343.021H126.918V340.783H128.22V343.021H130.173Z" fill="white"/>
<path d="M114.552 2.81486V4.307H112.599V6.5452H111.297V4.307H109.345V2.81486H111.297V0.57666H112.599V2.81486H114.552Z" fill="white"/>
<path d="M114.552 20.7206V22.2128H112.599V24.451H111.297V22.2128H109.345V20.7206H111.297V18.4824H112.599V20.7206H114.552Z" fill="white"/>
<path d="M114.552 38.6259V40.118H112.599V42.3562H111.297V40.118H109.345V38.6259H111.297V36.3877H112.599V38.6259H114.552Z" fill="white"/>
<path d="M114.552 56.5317V58.0238H112.599V60.262H111.297V58.0238H109.345V56.5317H111.297V54.2935H112.599V56.5317H114.552Z" fill="white"/>
<path d="M114.552 74.4374V75.9296H112.599V78.1678H111.297V75.9296H109.345V74.4374H111.297V72.1992H112.599V74.4374H114.552Z" fill="white"/>
<path d="M114.552 92.3427V93.8348H112.599V96.073H111.297V93.8348H109.345V92.3427H111.297V90.1045H112.599V92.3427H114.552Z" fill="white"/>
<path d="M114.552 110.248V111.741H112.599V113.979H111.297V111.741H109.345V110.248H111.297V108.01H112.599V110.248H114.552Z" fill="white"/>
<path d="M114.552 128.154V129.646H112.599V131.885H111.297V129.646H109.345V128.154H111.297V125.916H112.599V128.154H114.552Z" fill="white"/>
<path d="M114.552 146.059V147.552H112.599V149.79H111.297V147.552H109.345V146.059H111.297V143.821H112.599V146.059H114.552Z" fill="white"/>
<path d="M114.552 163.965V165.457H112.599V167.696H111.297V165.457H109.345V163.965H111.297V161.727H112.599V163.965H114.552Z" fill="white"/>
<path d="M114.552 181.871V183.363H112.599V185.601H111.297V183.363H109.345V181.871H111.297V179.632H112.599V181.871H114.552Z" fill="white"/>
<path d="M114.552 199.776V201.268H112.599V203.507H111.297V201.268H109.345V199.776H111.297V197.538H112.599V199.776H114.552Z" fill="white"/>
<path d="M114.552 217.682V219.174H112.599V221.412H111.297V219.174H109.345V217.682H111.297V215.444H112.599V217.682H114.552Z" fill="white"/>
<path d="M114.552 235.588V237.08H112.599V239.318H111.297V237.08H109.345V235.588H111.297V233.35H112.599V235.588H114.552Z" fill="white"/>
<path d="M114.552 253.493V254.985H112.599V257.223H111.297V254.985H109.345V253.493H111.297V251.255H112.599V253.493H114.552Z" fill="white"/>
<path d="M114.552 271.399V272.891H112.599V275.129H111.297V272.891H109.345V271.399H111.297V269.161H112.599V271.399H114.552Z" fill="white"/>
<path d="M114.552 289.304V290.796H112.599V293.035H111.297V290.796H109.345V289.304H111.297V287.066H112.599V289.304H114.552Z" fill="white"/>
<path d="M114.552 307.21V308.702H112.599V310.94H111.297V308.702H109.345V307.21H111.297V304.972H112.599V307.21H114.552Z" fill="white"/>
<path d="M114.552 325.116V326.608H112.599V328.846H111.297V326.608H109.345V325.116H111.297V322.877H112.599V325.116H114.552Z" fill="white"/>
<path d="M114.552 343.021V344.514H112.599V346.752H111.297V344.514H109.345V343.021H111.297V340.783H112.599V343.021H114.552Z" fill="white"/>
<path d="M98.9305 2.81486V4.307H96.978V6.5452H95.6762V4.307H93.7236V2.81486H95.6762V0.57666H96.978V2.81486H98.9305Z" fill="white"/>
<path d="M98.9305 20.7206V22.2128H96.978V24.451H95.6762V22.2128H93.7236V20.7206H95.6762V18.4824H96.978V20.7206H98.9305Z" fill="white"/>
<path d="M98.9305 38.6259V40.118H96.978V42.3562H95.6762V40.118H93.7236V38.6259H95.6762V36.3877H96.978V38.6259H98.9305Z" fill="white"/>
<path d="M98.9305 56.5317V58.0238H96.978V60.262H95.6762V58.0238H93.7236V56.5317H95.6762V54.2935H96.978V56.5317H98.9305Z" fill="white"/>
<path d="M98.9305 74.4374V75.9296H96.978V78.1678H95.6762V75.9296H93.7236V74.4374H95.6762V72.1992H96.978V74.4374H98.9305Z" fill="white"/>
<path d="M98.9305 92.3427V93.8348H96.978V96.073H95.6762V93.8348H93.7236V92.3427H95.6762V90.1045H96.978V92.3427H98.9305Z" fill="white"/>
<path d="M98.9305 110.248V111.741H96.978V113.979H95.6762V111.741H93.7236V110.248H95.6762V108.01H96.978V110.248H98.9305Z" fill="white"/>
<path d="M98.9305 128.154V129.646H96.978V131.885H95.6762V129.646H93.7236V128.154H95.6762V125.916H96.978V128.154H98.9305Z" fill="white"/>
<path d="M98.9305 146.059V147.552H96.978V149.79H95.6762V147.552H93.7236V146.059H95.6762V143.821H96.978V146.059H98.9305Z" fill="white"/>
<path d="M98.9305 163.965V165.457H96.978V167.696H95.6762V165.457H93.7236V163.965H95.6762V161.727H96.978V163.965H98.9305Z" fill="white"/>
<path d="M98.9305 181.871V183.363H96.978V185.601H95.6762V183.363H93.7236V181.871H95.6762V179.632H96.978V181.871H98.9305Z" fill="white"/>
<path d="M98.9305 199.776V201.268H96.978V203.507H95.6762V201.268H93.7236V199.776H95.6762V197.538H96.978V199.776H98.9305Z" fill="white"/>
<path d="M98.9305 217.682V219.174H96.978V221.412H95.6762V219.174H93.7236V217.682H95.6762V215.444H96.978V217.682H98.9305Z" fill="white"/>
<path d="M98.9305 235.588V237.08H96.978V239.318H95.6762V237.08H93.7236V235.588H95.6762V233.35H96.978V235.588H98.9305Z" fill="white"/>
<path d="M98.9305 253.493V254.985H96.978V257.223H95.6762V254.985H93.7236V253.493H95.6762V251.255H96.978V253.493H98.9305Z" fill="white"/>
<path d="M98.9305 271.399V272.891H96.978V275.129H95.6762V272.891H93.7236V271.399H95.6762V269.161H96.978V271.399H98.9305Z" fill="white"/>
<path d="M98.9305 289.304V290.796H96.978V293.035H95.6762V290.796H93.7236V289.304H95.6762V287.066H96.978V289.304H98.9305Z" fill="white"/>
<path d="M98.9305 307.21V308.702H96.978V310.94H95.6762V308.702H93.7236V307.21H95.6762V304.972H96.978V307.21H98.9305Z" fill="white"/>
<path d="M98.9305 325.116V326.608H96.978V328.846H95.6762V326.608H93.7236V325.116H95.6762V322.877H96.978V325.116H98.9305Z" fill="white"/>
<path d="M98.9305 343.021V344.514H96.978V346.752H95.6762V344.514H93.7236V343.021H95.6762V340.783H96.978V343.021H98.9305Z" fill="white"/>
<path d="M83.3104 2.81486V4.307H81.3578V6.5452H80.0561V4.307H78.1035V2.81486H80.0561V0.57666H81.3578V2.81486H83.3104Z" fill="white"/>
<path d="M83.3104 20.7206V22.2128H81.3578V24.451H80.0561V22.2128H78.1035V20.7206H80.0561V18.4824H81.3578V20.7206H83.3104Z" fill="white"/>
<path d="M83.3104 38.6259V40.118H81.3578V42.3562H80.0561V40.118H78.1035V38.6259H80.0561V36.3877H81.3578V38.6259H83.3104Z" fill="white"/>
<path d="M83.3104 56.5317V58.0238H81.3578V60.262H80.0561V58.0238H78.1035V56.5317H80.0561V54.2935H81.3578V56.5317H83.3104Z" fill="white"/>
<path d="M83.3104 74.4374V75.9296H81.3578V78.1678H80.0561V75.9296H78.1035V74.4374H80.0561V72.1992H81.3578V74.4374H83.3104Z" fill="white"/>
<path d="M83.3104 92.3427V93.8348H81.3578V96.073H80.0561V93.8348H78.1035V92.3427H80.0561V90.1045H81.3578V92.3427H83.3104Z" fill="white"/>
<path d="M83.3104 110.248V111.741H81.3578V113.979H80.0561V111.741H78.1035V110.248H80.0561V108.01H81.3578V110.248H83.3104Z" fill="white"/>
<path d="M83.3104 128.154V129.646H81.3578V131.885H80.0561V129.646H78.1035V128.154H80.0561V125.916H81.3578V128.154H83.3104Z" fill="white"/>
<path d="M83.3104 146.059V147.552H81.3578V149.79H80.0561V147.552H78.1035V146.059H80.0561V143.821H81.3578V146.059H83.3104Z" fill="white"/>
<path d="M83.3104 163.965V165.457H81.3578V167.696H80.0561V165.457H78.1035V163.965H80.0561V161.727H81.3578V163.965H83.3104Z" fill="white"/>
<path d="M83.3104 181.871V183.363H81.3578V185.601H80.0561V183.363H78.1035V181.871H80.0561V179.632H81.3578V181.871H83.3104Z" fill="white"/>
<path d="M83.3104 199.776V201.268H81.3578V203.507H80.0561V201.268H78.1035V199.776H80.0561V197.538H81.3578V199.776H83.3104Z" fill="white"/>
<path d="M83.3104 217.682V219.174H81.3578V221.412H80.0561V219.174H78.1035V217.682H80.0561V215.444H81.3578V217.682H83.3104Z" fill="white"/>
<path d="M83.3104 235.588V237.08H81.3578V239.318H80.0561V237.08H78.1035V235.588H80.0561V233.35H81.3578V235.588H83.3104Z" fill="white"/>
<path d="M83.3104 253.493V254.985H81.3578V257.223H80.0561V254.985H78.1035V253.493H80.0561V251.255H81.3578V253.493H83.3104Z" fill="white"/>
<path d="M83.3104 271.399V272.891H81.3578V275.129H80.0561V272.891H78.1035V271.399H80.0561V269.161H81.3578V271.399H83.3104Z" fill="white"/>
<path d="M83.3104 289.304V290.796H81.3578V293.035H80.0561V290.796H78.1035V289.304H80.0561V287.066H81.3578V289.304H83.3104Z" fill="white"/>
<path d="M83.3104 307.21V308.702H81.3578V310.94H80.0561V308.702H78.1035V307.21H80.0561V304.972H81.3578V307.21H83.3104Z" fill="white"/>
<path d="M83.3104 325.116V326.608H81.3578V328.846H80.0561V326.608H78.1035V325.116H80.0561V322.877H81.3578V325.116H83.3104Z" fill="white"/>
<path d="M83.3104 343.021V344.514H81.3578V346.752H80.0561V344.514H78.1035V343.021H80.0561V340.783H81.3578V343.021H83.3104Z" fill="white"/>
<path d="M67.6893 2.81486V4.307H65.7367V6.5452H64.435V4.307H62.4824V2.81486H64.435V0.57666H65.7367V2.81486H67.6893Z" fill="white"/>
<path d="M67.6893 20.7206V22.2128H65.7367V24.451H64.435V22.2128H62.4824V20.7206H64.435V18.4824H65.7367V20.7206H67.6893Z" fill="white"/>
<path d="M67.6893 38.6259V40.118H65.7367V42.3562H64.435V40.118H62.4824V38.6259H64.435V36.3877H65.7367V38.6259H67.6893Z" fill="white"/>
<path d="M67.6893 56.5317V58.0238H65.7367V60.262H64.435V58.0238H62.4824V56.5317H64.435V54.2935H65.7367V56.5317H67.6893Z" fill="white"/>
<path d="M67.6893 74.4374V75.9296H65.7367V78.1678H64.435V75.9296H62.4824V74.4374H64.435V72.1992H65.7367V74.4374H67.6893Z" fill="white"/>
<path d="M67.6893 92.3427V93.8348H65.7367V96.073H64.435V93.8348H62.4824V92.3427H64.435V90.1045H65.7367V92.3427H67.6893Z" fill="white"/>
<path d="M67.6893 110.248V111.741H65.7367V113.979H64.435V111.741H62.4824V110.248H64.435V108.01H65.7367V110.248H67.6893Z" fill="white"/>
<path d="M67.6893 128.154V129.646H65.7367V131.885H64.435V129.646H62.4824V128.154H64.435V125.916H65.7367V128.154H67.6893Z" fill="white"/>
<path d="M67.6893 146.059V147.552H65.7367V149.79H64.435V147.552H62.4824V146.059H64.435V143.821H65.7367V146.059H67.6893Z" fill="white"/>
<path d="M67.6893 163.965V165.457H65.7367V167.696H64.435V165.457H62.4824V163.965H64.435V161.727H65.7367V163.965H67.6893Z" fill="white"/>
<path d="M67.6893 181.871V183.363H65.7367V185.601H64.435V183.363H62.4824V181.871H64.435V179.632H65.7367V181.871H67.6893Z" fill="white"/>
<path d="M67.6893 199.776V201.268H65.7367V203.507H64.435V201.268H62.4824V199.776H64.435V197.538H65.7367V199.776H67.6893Z" fill="white"/>
<path d="M67.6893 217.682V219.174H65.7367V221.412H64.435V219.174H62.4824V217.682H64.435V215.444H65.7367V217.682H67.6893Z" fill="white"/>
<path d="M67.6893 235.588V237.08H65.7367V239.318H64.435V237.08H62.4824V235.588H64.435V233.35H65.7367V235.588H67.6893Z" fill="white"/>
<path d="M67.6893 253.493V254.985H65.7367V257.223H64.435V254.985H62.4824V253.493H64.435V251.255H65.7367V253.493H67.6893Z" fill="white"/>
<path d="M67.6893 271.399V272.891H65.7367V275.129H64.435V272.891H62.4824V271.399H64.435V269.161H65.7367V271.399H67.6893Z" fill="white"/>
<path d="M67.6893 289.304V290.796H65.7367V293.035H64.435V290.796H62.4824V289.304H64.435V287.066H65.7367V289.304H67.6893Z" fill="white"/>
<path d="M67.6893 307.21V308.702H65.7367V310.94H64.435V308.702H62.4824V307.21H64.435V304.972H65.7367V307.21H67.6893Z" fill="white"/>
<path d="M67.6893 325.116V326.608H65.7367V328.846H64.435V326.608H62.4824V325.116H64.435V322.877H65.7367V325.116H67.6893Z" fill="white"/>
<path d="M67.6893 343.021V344.514H65.7367V346.752H64.435V344.514H62.4824V343.021H64.435V340.783H65.7367V343.021H67.6893Z" fill="white"/>
<path d="M52.0692 2.81486V4.307H50.1166V6.5452H48.8149V4.307H46.8623V2.81486H48.8149V0.57666H50.1166V2.81486H52.0692Z" fill="white"/>
<path d="M52.0692 20.7206V22.2128H50.1166V24.451H48.8149V22.2128H46.8623V20.7206H48.8149V18.4824H50.1166V20.7206H52.0692Z" fill="white"/>
<path d="M52.0692 38.6259V40.118H50.1166V42.3562H48.8149V40.118H46.8623V38.6259H48.8149V36.3877H50.1166V38.6259H52.0692Z" fill="white"/>
<path d="M52.0692 56.5317V58.0238H50.1166V60.262H48.8149V58.0238H46.8623V56.5317H48.8149V54.2935H50.1166V56.5317H52.0692Z" fill="white"/>
<path d="M52.0692 74.4374V75.9296H50.1166V78.1678H48.8149V75.9296H46.8623V74.4374H48.8149V72.1992H50.1166V74.4374H52.0692Z" fill="white"/>
<path d="M52.0692 92.3427V93.8348H50.1166V96.073H48.8149V93.8348H46.8623V92.3427H48.8149V90.1045H50.1166V92.3427H52.0692Z" fill="white"/>
<path d="M52.0692 110.248V111.741H50.1166V113.979H48.8149V111.741H46.8623V110.248H48.8149V108.01H50.1166V110.248H52.0692Z" fill="white"/>
<path d="M52.0692 128.154V129.646H50.1166V131.885H48.8149V129.646H46.8623V128.154H48.8149V125.916H50.1166V128.154H52.0692Z" fill="white"/>
<path d="M52.0692 146.059V147.552H50.1166V149.79H48.8149V147.552H46.8623V146.059H48.8149V143.821H50.1166V146.059H52.0692Z" fill="white"/>
<path d="M52.0692 163.965V165.457H50.1166V167.696H48.8149V165.457H46.8623V163.965H48.8149V161.727H50.1166V163.965H52.0692Z" fill="white"/>
<path d="M52.0692 181.871V183.363H50.1166V185.601H48.8149V183.363H46.8623V181.871H48.8149V179.632H50.1166V181.871H52.0692Z" fill="white"/>
<path d="M52.0692 199.776V201.268H50.1166V203.507H48.8149V201.268H46.8623V199.776H48.8149V197.538H50.1166V199.776H52.0692Z" fill="white"/>
<path d="M52.0692 217.682V219.174H50.1166V221.412H48.8149V219.174H46.8623V217.682H48.8149V215.444H50.1166V217.682H52.0692Z" fill="white"/>
<path d="M52.0692 235.588V237.08H50.1166V239.318H48.8149V237.08H46.8623V235.588H48.8149V233.35H50.1166V235.588H52.0692Z" fill="white"/>
<path d="M52.0692 253.493V254.985H50.1166V257.223H48.8149V254.985H46.8623V253.493H48.8149V251.255H50.1166V253.493H52.0692Z" fill="white"/>
<path d="M52.0692 271.399V272.891H50.1166V275.129H48.8149V272.891H46.8623V271.399H48.8149V269.161H50.1166V271.399H52.0692Z" fill="white"/>
<path d="M52.0692 289.304V290.796H50.1166V293.035H48.8149V290.796H46.8623V289.304H48.8149V287.066H50.1166V289.304H52.0692Z" fill="white"/>
<path d="M52.0692 307.21V308.702H50.1166V310.94H48.8149V308.702H46.8623V307.21H48.8149V304.972H50.1166V307.21H52.0692Z" fill="white"/>
<path d="M52.0692 325.116V326.608H50.1166V328.846H48.8149V326.608H46.8623V325.116H48.8149V322.877H50.1166V325.116H52.0692Z" fill="white"/>
<path d="M52.0692 343.021V344.514H50.1166V346.752H48.8149V344.514H46.8623V343.021H48.8149V340.783H50.1166V343.021H52.0692Z" fill="white"/>
<path d="M36.4481 2.81486V4.307H34.4955V6.5452H33.1938V4.307H31.2412V2.81486H33.1938V0.57666H34.4955V2.81486H36.4481Z" fill="white"/>
<path d="M36.4481 20.7206V22.2128H34.4955V24.451H33.1938V22.2128H31.2412V20.7206H33.1938V18.4824H34.4955V20.7206H36.4481Z" fill="white"/>
<path d="M36.4481 38.6259V40.118H34.4955V42.3562H33.1938V40.118H31.2412V38.6259H33.1938V36.3877H34.4955V38.6259H36.4481Z" fill="white"/>
<path d="M36.4481 56.5317V58.0238H34.4955V60.262H33.1938V58.0238H31.2412V56.5317H33.1938V54.2935H34.4955V56.5317H36.4481Z" fill="white"/>
<path d="M36.4481 74.4374V75.9296H34.4955V78.1678H33.1938V75.9296H31.2412V74.4374H33.1938V72.1992H34.4955V74.4374H36.4481Z" fill="white"/>
<path d="M36.4481 92.3427V93.8348H34.4955V96.073H33.1938V93.8348H31.2412V92.3427H33.1938V90.1045H34.4955V92.3427H36.4481Z" fill="white"/>
<path d="M36.4481 110.248V111.741H34.4955V113.979H33.1938V111.741H31.2412V110.248H33.1938V108.01H34.4955V110.248H36.4481Z" fill="white"/>
<path d="M36.4481 128.154V129.646H34.4955V131.885H33.1938V129.646H31.2412V128.154H33.1938V125.916H34.4955V128.154H36.4481Z" fill="white"/>
<path d="M36.4481 146.059V147.552H34.4955V149.79H33.1938V147.552H31.2412V146.059H33.1938V143.821H34.4955V146.059H36.4481Z" fill="white"/>
<path d="M36.4481 163.965V165.457H34.4955V167.696H33.1938V165.457H31.2412V163.965H33.1938V161.727H34.4955V163.965H36.4481Z" fill="white"/>
<path d="M36.4481 181.871V183.363H34.4955V185.601H33.1938V183.363H31.2412V181.871H33.1938V179.632H34.4955V181.871H36.4481Z" fill="white"/>
<path d="M36.4481 199.776V201.268H34.4955V203.507H33.1938V201.268H31.2412V199.776H33.1938V197.538H34.4955V199.776H36.4481Z" fill="white"/>
<path d="M36.4481 217.682V219.174H34.4955V221.412H33.1938V219.174H31.2412V217.682H33.1938V215.444H34.4955V217.682H36.4481Z" fill="white"/>
<path d="M36.4481 235.588V237.08H34.4955V239.318H33.1938V237.08H31.2412V235.588H33.1938V233.35H34.4955V235.588H36.4481Z" fill="white"/>
<path d="M36.4481 253.493V254.985H34.4955V257.223H33.1938V254.985H31.2412V253.493H33.1938V251.255H34.4955V253.493H36.4481Z" fill="white"/>
<path d="M36.4481 271.399V272.891H34.4955V275.129H33.1938V272.891H31.2412V271.399H33.1938V269.161H34.4955V271.399H36.4481Z" fill="white"/>
<path d="M36.4481 289.304V290.796H34.4955V293.035H33.1938V290.796H31.2412V289.304H33.1938V287.066H34.4955V289.304H36.4481Z" fill="white"/>
<path d="M36.4481 307.21V308.702H34.4955V310.94H33.1938V308.702H31.2412V307.21H33.1938V304.972H34.4955V307.21H36.4481Z" fill="white"/>
<path d="M36.4481 325.116V326.608H34.4955V328.846H33.1938V326.608H31.2412V325.116H33.1938V322.877H34.4955V325.116H36.4481Z" fill="white"/>
<path d="M36.4481 343.021V344.514H34.4955V346.752H33.1938V344.514H31.2412V343.021H33.1938V340.783H34.4955V343.021H36.4481Z" fill="white"/>
<path d="M20.828 2.81486V4.307H18.8754V6.5452H17.5737V4.307H15.6211V2.81486H17.5737V0.57666H18.8754V2.81486H20.828Z" fill="white"/>
<path d="M20.828 20.7206V22.2128H18.8754V24.451H17.5737V22.2128H15.6211V20.7206H17.5737V18.4824H18.8754V20.7206H20.828Z" fill="white"/>
<path d="M20.828 38.6259V40.118H18.8754V42.3562H17.5737V40.118H15.6211V38.6259H17.5737V36.3877H18.8754V38.6259H20.828Z" fill="white"/>
<path d="M20.828 56.5317V58.0238H18.8754V60.262H17.5737V58.0238H15.6211V56.5317H17.5737V54.2935H18.8754V56.5317H20.828Z" fill="white"/>
<path d="M20.828 74.4374V75.9296H18.8754V78.1678H17.5737V75.9296H15.6211V74.4374H17.5737V72.1992H18.8754V74.4374H20.828Z" fill="white"/>
<path d="M20.828 92.3427V93.8348H18.8754V96.073H17.5737V93.8348H15.6211V92.3427H17.5737V90.1045H18.8754V92.3427H20.828Z" fill="white"/>
<path d="M20.828 110.248V111.741H18.8754V113.979H17.5737V111.741H15.6211V110.248H17.5737V108.01H18.8754V110.248H20.828Z" fill="white"/>
<path d="M20.828 128.154V129.646H18.8754V131.885H17.5737V129.646H15.6211V128.154H17.5737V125.916H18.8754V128.154H20.828Z" fill="white"/>
<path d="M20.828 146.059V147.552H18.8754V149.79H17.5737V147.552H15.6211V146.059H17.5737V143.821H18.8754V146.059H20.828Z" fill="white"/>
<path d="M20.828 163.965V165.457H18.8754V167.696H17.5737V165.457H15.6211V163.965H17.5737V161.727H18.8754V163.965H20.828Z" fill="white"/>
<path d="M20.828 181.871V183.363H18.8754V185.601H17.5737V183.363H15.6211V181.871H17.5737V179.632H18.8754V181.871H20.828Z" fill="white"/>
<path d="M20.828 199.776V201.268H18.8754V203.507H17.5737V201.268H15.6211V199.776H17.5737V197.538H18.8754V199.776H20.828Z" fill="white"/>
<path d="M20.828 217.682V219.174H18.8754V221.412H17.5737V219.174H15.6211V217.682H17.5737V215.444H18.8754V217.682H20.828Z" fill="white"/>
<path d="M20.828 235.588V237.08H18.8754V239.318H17.5737V237.08H15.6211V235.588H17.5737V233.35H18.8754V235.588H20.828Z" fill="white"/>
<path d="M20.828 253.493V254.985H18.8754V257.223H17.5737V254.985H15.6211V253.493H17.5737V251.255H18.8754V253.493H20.828Z" fill="white"/>
<path d="M20.828 271.399V272.891H18.8754V275.129H17.5737V272.891H15.6211V271.399H17.5737V269.161H18.8754V271.399H20.828Z" fill="white"/>
<path d="M20.828 289.304V290.796H18.8754V293.035H17.5737V290.796H15.6211V289.304H17.5737V287.066H18.8754V289.304H20.828Z" fill="white"/>
<path d="M20.828 307.21V308.702H18.8754V310.94H17.5737V308.702H15.6211V307.21H17.5737V304.972H18.8754V307.21H20.828Z" fill="white"/>
<path d="M20.828 325.116V326.608H18.8754V328.846H17.5737V326.608H15.6211V325.116H17.5737V322.877H18.8754V325.116H20.828Z" fill="white"/>
<path d="M20.828 343.021V344.514H18.8754V346.752H17.5737V344.514H15.6211V343.021H17.5737V340.783H18.8754V343.021H20.828Z" fill="white"/>
<path d="M5.20691 2.81486V4.307H3.25432V6.5452H1.95259V4.307H0V2.81486H1.95259V0.57666H3.25432V2.81486H5.20691Z" fill="white"/>
<path d="M5.20691 20.7206V22.2128H3.25432V24.451H1.95259V22.2128H0V20.7206H1.95259V18.4824H3.25432V20.7206H5.20691Z" fill="white"/>
<path d="M5.20691 38.6259V40.118H3.25432V42.3562H1.95259V40.118H0V38.6259H1.95259V36.3877H3.25432V38.6259H5.20691Z" fill="white"/>
<path d="M5.20691 56.5317V58.0238H3.25432V60.262H1.95259V58.0238H0V56.5317H1.95259V54.2935H3.25432V56.5317H5.20691Z" fill="white"/>
<path d="M5.20691 74.4374V75.9296H3.25432V78.1678H1.95259V75.9296H0V74.4374H1.95259V72.1992H3.25432V74.4374H5.20691Z" fill="white"/>
<path d="M5.20691 92.3427V93.8348H3.25432V96.073H1.95259V93.8348H0V92.3427H1.95259V90.1045H3.25432V92.3427H5.20691Z" fill="white"/>
<path d="M5.20691 110.248V111.741H3.25432V113.979H1.95259V111.741H0V110.248H1.95259V108.01H3.25432V110.248H5.20691Z" fill="white"/>
<path d="M5.20691 128.154V129.646H3.25432V131.885H1.95259V129.646H0V128.154H1.95259V125.916H3.25432V128.154H5.20691Z" fill="white"/>
<path d="M5.20691 146.059V147.552H3.25432V149.79H1.95259V147.552H0V146.059H1.95259V143.821H3.25432V146.059H5.20691Z" fill="white"/>
<path d="M5.20691 163.965V165.457H3.25432V167.696H1.95259V165.457H0V163.965H1.95259V161.727H3.25432V163.965H5.20691Z" fill="white"/>
<path d="M5.20691 181.871V183.363H3.25432V185.601H1.95259V183.363H0V181.871H1.95259V179.632H3.25432V181.871H5.20691Z" fill="white"/>
<path d="M5.20691 199.776V201.268H3.25432V203.507H1.95259V201.268H0V199.776H1.95259V197.538H3.25432V199.776H5.20691Z" fill="white"/>
<path d="M5.20691 217.682V219.174H3.25432V221.412H1.95259V219.174H0V217.682H1.95259V215.444H3.25432V217.682H5.20691Z" fill="white"/>
<path d="M5.20691 235.588V237.08H3.25432V239.318H1.95259V237.08H0V235.588H1.95259V233.35H3.25432V235.588H5.20691Z" fill="white"/>
<path d="M5.20691 253.493V254.985H3.25432V257.223H1.95259V254.985H0V253.493H1.95259V251.255H3.25432V253.493H5.20691Z" fill="white"/>
<path d="M5.20691 271.399V272.891H3.25432V275.129H1.95259V272.891H0V271.399H1.95259V269.161H3.25432V271.399H5.20691Z" fill="white"/>
<path d="M5.20691 289.304V290.796H3.25432V293.035H1.95259V290.796H0V289.304H1.95259V287.066H3.25432V289.304H5.20691Z" fill="white"/>
<path d="M5.20691 307.21V308.702H3.25432V310.94H1.95259V308.702H0V307.21H1.95259V304.972H3.25432V307.21H5.20691Z" fill="white"/>
<path d="M5.20691 325.116V326.608H3.25432V328.846H1.95259V326.608H0V325.116H1.95259V322.877H3.25432V325.116H5.20691Z" fill="white"/>
<path d="M5.20691 343.021V344.514H3.25432V346.752H1.95259V344.514H0V343.021H1.95259V340.783H3.25432V343.021H5.20691Z" fill="white"/>
</g>
</svg>
