<svg width="72" height="72" viewBox="0 0 72 72" fill="none" xmlns="http://www.w3.org/2000/svg">
<path fill-rule="evenodd" clip-rule="evenodd" d="M31 0.999936H40.9999C57.5685 0.999936 70.9999 14.4311 70.9999 30.9999V40.9999C70.9999 57.5682 57.5685 70.9998 40.9999 70.9998H31C14.4315 70.9998 0.999936 57.5682 0.999936 40.9999V30.9999C0.999936 14.4311 14.4315 0.999936 31 0.999936Z" fill="white"/>
<path d="M28.09 49.3C26.41 49.3 24.99 48.84 23.83 47.92C22.69 46.98 21.83 45.7 21.25 44.08C20.67 42.46 20.38 40.6 20.38 38.5C20.38 36.4 20.67 34.54 21.25 32.92C21.83 31.3 22.69 30.03 23.83 29.11C24.99 28.17 26.41 27.7 28.09 27.7C29.79 27.7 31.21 28.17 32.35 29.11C33.49 30.03 34.35 31.3 34.93 32.92C35.53 34.54 35.83 36.4 35.83 38.5C35.83 40.6 35.53 42.46 34.93 44.08C34.35 45.7 33.49 46.98 32.35 47.92C31.21 48.84 29.79 49.3 28.09 49.3ZM28.09 46.36C29.53 46.36 30.65 45.68 31.45 44.32C32.27 42.96 32.68 41.02 32.68 38.5C32.68 35.98 32.27 34.04 31.45 32.68C30.65 31.32 29.53 30.64 28.09 30.64C26.65 30.64 25.52 31.32 24.7 32.68C23.9 34.04 23.5 35.98 23.5 38.5C23.5 41.02 23.9 42.96 24.7 44.32C25.52 45.68 26.65 46.36 28.09 46.36ZM52.7027 45.88V49H40.0127L39.0227 46.54L45.4427 39.31C46.2627 38.39 47.0127 37.47 47.6927 36.55C48.3727 35.63 48.7127 34.69 48.7127 33.73C48.7127 32.73 48.4227 31.98 47.8427 31.48C47.2627 30.96 46.5027 30.7 45.5627 30.7C45.1027 30.7 44.5927 30.84 44.0327 31.12C43.4727 31.4 42.9427 31.84 42.4427 32.44C41.9427 33.04 41.5427 33.83 41.2427 34.81L38.7527 33.25C39.2927 31.39 40.2227 30 41.5427 29.08C42.8827 28.16 44.3527 27.7 45.9527 27.7C47.0927 27.7 48.1227 27.94 49.0427 28.42C49.9627 28.88 50.6927 29.54 51.2327 30.4C51.7727 31.26 52.0427 32.29 52.0427 33.49C52.0427 34.87 51.6227 36.24 50.7827 37.6C49.9627 38.94 48.9527 40.27 47.7527 41.59L43.8227 45.88H52.7027Z" fill="#234582"/>
</svg>
