<svg width="72" height="72" viewBox="0 0 72 72" fill="none" xmlns="http://www.w3.org/2000/svg">
<path fill-rule="evenodd" clip-rule="evenodd" d="M31 0.999936H40.9999C57.5685 0.999936 70.9999 14.4311 70.9999 30.9999V40.9999C70.9999 57.5682 57.5685 70.9998 40.9999 70.9998H31C14.4315 70.9998 0.999936 57.5682 0.999936 40.9999V30.9999C0.999936 14.4311 14.4315 0.999936 31 0.999936Z" fill="white"/>
<path d="M28.09 49.3C26.41 49.3 24.99 48.84 23.83 47.92C22.69 46.98 21.83 45.7 21.25 44.08C20.67 42.46 20.38 40.6 20.38 38.5C20.38 36.4 20.67 34.54 21.25 32.92C21.83 31.3 22.69 30.03 23.83 29.11C24.99 28.17 26.41 27.7 28.09 27.7C29.79 27.7 31.21 28.17 32.35 29.11C33.49 30.03 34.35 31.3 34.93 32.92C35.53 34.54 35.83 36.4 35.83 38.5C35.83 40.6 35.53 42.46 34.93 44.08C34.35 45.7 33.49 46.98 32.35 47.92C31.21 48.84 29.79 49.3 28.09 49.3ZM28.09 46.36C29.53 46.36 30.65 45.68 31.45 44.32C32.27 42.96 32.68 41.02 32.68 38.5C32.68 35.98 32.27 34.04 31.45 32.68C30.65 31.32 29.53 30.64 28.09 30.64C26.65 30.64 25.52 31.32 24.7 32.68C23.9 34.04 23.5 35.98 23.5 38.5C23.5 41.02 23.9 42.96 24.7 44.32C25.52 45.68 26.65 46.36 28.09 46.36ZM40.3427 43.27C40.6427 43.71 41.0027 44.18 41.4227 44.68C41.8627 45.18 42.3727 45.6 42.9527 45.94C43.5527 46.28 44.2327 46.45 44.9927 46.45C45.5927 46.45 46.1927 46.3 46.7927 46C47.3927 45.68 47.8927 45.22 48.2927 44.62C48.7127 44 48.9227 43.25 48.9227 42.37C48.9227 41.47 48.7527 40.75 48.4127 40.21C48.0927 39.67 47.6627 39.28 47.1227 39.04C46.5827 38.8 45.9927 38.68 45.3527 38.68C44.7327 38.68 44.1027 38.78 43.4627 38.98C42.8427 39.16 42.2627 39.36 41.7227 39.58L40.8227 37.21L46.4627 31H38.9927V28H51.0227L51.6227 29.2L45.7427 35.71C46.9027 35.71 47.9527 36 48.8927 36.58C49.8527 37.14 50.6127 37.91 51.1727 38.89C51.7527 39.87 52.0427 40.97 52.0427 42.19C52.0427 43.63 51.6927 44.89 50.9927 45.97C50.3127 47.03 49.4127 47.85 48.2927 48.43C47.1927 49.01 46.0127 49.3 44.7527 49.3C43.5727 49.3 42.5527 49.11 41.6927 48.73C40.8527 48.33 40.1227 47.79 39.5027 47.11C38.8827 46.43 38.3227 45.68 37.8227 44.86L40.3427 43.27Z" fill="#244784"/>
</svg>
