<svg width="82" height="82" viewBox="0 0 82 82" fill="none" xmlns="http://www.w3.org/2000/svg">
<path opacity="0.102" d="M54 0H28C12.536 0 0 12.536 0 28V54C0 69.464 12.536 82 28 82H54C69.464 82 82 69.464 82 54V28C82 12.536 69.464 0 54 0Z" fill="#FF4361"/>
<path d="M49.229 51.456C49.3623 50.4728 49.2511 49.4719 48.9051 48.542C48.2173 47.4033 47.2314 46.4741 46.054 45.8549C45.697 45.6199 45.469 45.477 45.235 45.33C43.698 44.361 42.0831 43.3429 41.5011 41.9109C40.9201 43.3419 39.301 44.3609 37.769 45.3289C37.461 45.5239 37.158 45.714 36.948 45.852C35.7684 46.4758 34.7839 47.4132 34.1031 48.5609C33.7608 49.4844 33.6482 50.4773 33.775 51.4539L49.229 51.456ZM50.696 47.715C51.2621 49.2253 51.4107 50.8603 51.1261 52.448C51.1255 52.7098 51.021 52.9607 50.8356 53.1456C50.6502 53.3305 50.3989 53.4342 50.137 53.434H32.862C32.6156 53.4339 32.3781 53.3414 32.1965 53.1748C32.0149 53.0082 31.9023 52.7795 31.881 52.534C31.595 50.9279 31.7431 49.2746 32.31 47.745C32.897 46.461 33.976 45.4509 35.867 44.2079C36.194 43.9929 36.456 43.827 36.718 43.663C38.186 42.737 39.747 41.752 39.747 40.763C39.747 39.774 38.186 38.7919 36.718 37.8629C36.457 37.6989 36.195 37.533 35.867 37.318C33.904 36.028 32.8121 34.927 32.2411 33.546C31.7127 31.9524 31.5873 30.2528 31.8761 28.599C31.8792 28.3388 31.9846 28.0904 32.1695 27.9074C32.3544 27.7244 32.6039 27.6215 32.864 27.621H50.1341C50.3793 27.6209 50.6157 27.7122 50.7971 27.8772C50.9785 28.0422 51.0919 28.2689 51.115 28.513C51.4143 30.1927 51.2916 31.9204 50.758 33.541C50.188 34.921 49.095 36.023 47.132 37.313C46.799 37.532 46.5421 37.6939 46.2801 37.8589C44.8131 38.7839 43.2511 39.769 43.2511 40.759C43.2511 41.749 44.814 42.73 46.282 43.659C46.617 43.87 46.952 44.082 47.131 44.2C49.024 45.444 50.107 46.4329 50.695 47.7079L50.696 47.715ZM41.4961 39.615C42.0771 38.184 43.696 37.166 45.229 36.197C45.536 36.003 45.844 35.81 46.049 35.675C47.2766 35.0267 48.2813 34.0247 48.933 32.799C49.2737 31.7686 49.374 30.674 49.226 29.599H33.77C33.622 30.6741 33.7226 31.7688 34.0641 32.799C34.7156 34.0245 35.7199 35.0264 36.947 35.675C37.157 35.812 37.46 36.004 37.768 36.197C39.304 37.165 40.919 38.184 41.5 39.615H41.4961Z" fill="#333333"/>
<path d="M30.773 24H52.223C52.5864 24.0005 52.9461 24.0726 53.2816 24.2122C53.6171 24.3519 53.9217 24.5564 54.178 24.814C54.4356 25.0713 54.64 25.3768 54.7795 25.7131C54.919 26.0494 54.9909 26.4099 54.991 26.774C54.9904 27.138 54.918 27.4983 54.778 27.8342C54.6379 28.1702 54.433 28.4753 54.175 28.732C53.918 28.9902 53.6127 29.1951 53.2763 29.335C52.94 29.4749 52.5793 29.5469 52.215 29.547H30.773C30.4089 29.5468 30.0485 29.4747 29.7123 29.3348C29.3761 29.195 29.0708 28.9901 28.814 28.732C28.5562 28.4752 28.3515 28.1701 28.2116 27.8341C28.0718 27.4981 27.9995 27.1379 27.999 26.774C27.9994 26.4105 28.0714 26.0507 28.2109 25.7151C28.3504 25.3795 28.5546 25.0746 28.812 24.818C29.0683 24.5603 29.3729 24.3558 29.7084 24.2161C30.0439 24.0764 30.4036 24.0043 30.767 24.004L30.773 24ZM52.227 25.978H30.773C30.5626 25.9781 30.3607 26.0611 30.211 26.209C30.0633 26.3584 29.9803 26.5599 29.98 26.77C29.9797 26.8741 30 26.9772 30.0397 27.0735C30.0793 27.1697 30.1375 27.2573 30.211 27.331C30.3602 27.48 30.5622 27.5641 30.773 27.565H52.223C52.3273 27.5649 52.4306 27.5441 52.5269 27.5039C52.6231 27.4638 52.7105 27.405 52.784 27.331C52.8575 27.2573 52.9157 27.1697 52.9554 27.0735C52.995 26.9772 53.0153 26.8741 53.015 26.77C53.0146 26.6656 52.9937 26.5624 52.9534 26.4661C52.913 26.3698 52.8541 26.2825 52.78 26.209C52.6304 26.0601 52.428 25.9763 52.217 25.976L52.227 25.978Z" fill="#333333"/>
<path d="M30.7729 51.4561H52.223C52.5871 51.4562 52.9477 51.5281 53.2841 51.6678C53.6204 51.8075 53.9258 52.0121 54.1829 52.2701C54.4408 52.5267 54.6457 52.8316 54.7857 53.1674C54.9257 53.5032 54.9982 53.8632 54.999 54.2271C54.9974 54.9621 54.7047 55.6666 54.1851 56.1865C53.6654 56.7063 52.961 56.9992 52.226 57.001H30.7729C30.4088 57.0008 30.0484 56.9287 29.7122 56.7888C29.376 56.649 29.0708 56.4441 28.814 56.186C28.5566 55.9294 28.3523 55.6246 28.2128 55.289C28.0733 54.9533 28.0013 54.5935 28.001 54.23C28.0016 53.8663 28.0739 53.5063 28.2137 53.1705C28.3536 52.8347 28.5583 52.5297 28.816 52.273C29.073 52.0153 29.3783 51.8107 29.7144 51.671C30.0506 51.5313 30.411 51.4593 30.775 51.459L30.7729 51.4561ZM52.2269 53.4341H30.7729C30.562 53.4352 30.36 53.5197 30.2109 53.669C30.1374 53.7425 30.0791 53.8299 30.0395 53.926C29.9998 54.0221 29.9796 54.1251 29.9799 54.229C29.98 54.4404 30.0638 54.6432 30.213 54.7931C30.3621 54.9421 30.5641 55.0261 30.775 55.027H52.223C52.328 55.027 52.4321 55.0064 52.5291 54.9662C52.6262 54.926 52.7143 54.867 52.7886 54.7927C52.8629 54.7184 52.9218 54.6303 52.962 54.5332C53.0022 54.4361 53.0229 54.3321 53.0229 54.2271C53.0233 54.1231 53.0031 54.0201 52.9634 53.924C52.9238 53.8278 52.8655 53.7405 52.7919 53.6671C52.7185 53.5929 52.6311 53.5339 52.5349 53.4936C52.4386 53.4533 52.3353 53.4324 52.231 53.432L52.2269 53.4341Z" fill="#333333"/>
<path d="M30.7743 57C30.4102 56.9998 30.0496 56.9278 29.7133 56.7881C29.377 56.6484 29.0715 56.4439 28.8143 56.186C28.5568 55.9295 28.3525 55.6247 28.213 55.2891C28.0734 54.9534 28.0015 54.5935 28.0013 54.23C28.0017 53.866 28.0739 53.5057 28.2137 53.1697C28.3536 52.8337 28.5584 52.5287 28.8163 52.272C29.0736 52.0142 29.3791 51.8096 29.7154 51.6699C30.0517 51.5303 30.4122 51.4583 30.7763 51.458H31.8003C31.659 50.1976 31.834 48.9219 32.3093 47.7461C32.8963 46.4631 33.9753 45.452 35.8663 44.209C36.1933 43.994 36.4553 43.828 36.7163 43.665C38.1843 42.739 39.7453 41.7529 39.7453 40.7649C39.7453 39.7769 38.1833 38.794 36.7163 37.865C36.4543 37.701 36.1923 37.536 35.8663 37.321C33.9033 36.031 32.8113 34.9301 32.2403 33.5491C31.7814 32.2688 31.6297 30.8987 31.7973 29.5491H30.7723C30.4081 29.5491 30.0475 29.4771 29.7112 29.3374C29.3748 29.1977 29.0694 28.9931 28.8123 28.7351C28.5543 28.4786 28.3495 28.1736 28.2097 27.8376C28.07 27.5017 27.998 27.1414 27.998 26.7776C27.998 26.4137 28.07 26.0535 28.2097 25.7175C28.3495 25.3816 28.5543 25.0766 28.8123 24.8201C29.0687 24.5622 29.3734 24.3575 29.7091 24.2178C30.0448 24.0781 30.4048 24.0062 30.7683 24.0061H52.2213C52.5849 24.0063 52.9449 24.0783 53.2805 24.218C53.6162 24.3577 53.921 24.5623 54.1773 24.8201C54.4355 25.0768 54.6403 25.3821 54.7801 25.7183C54.9199 26.0545 54.9919 26.415 54.9919 26.7791C54.9919 27.1431 54.9199 27.5037 54.7801 27.8398C54.6403 28.176 54.4355 28.4813 54.1773 28.738C53.9203 28.9961 53.6149 29.2009 53.2785 29.3406C52.9422 29.4803 52.5815 29.552 52.2173 29.552H51.2003C51.3683 30.9016 51.2169 32.2717 50.7583 33.552C50.1873 34.933 49.0953 36.034 47.1323 37.324C46.8003 37.544 46.5423 37.7049 46.2813 37.8689C44.8143 38.7939 43.2523 39.78 43.2523 40.769C43.2523 41.758 44.8153 42.7399 46.2843 43.6689C46.6183 43.8789 46.9543 44.092 47.1333 44.21C49.0263 45.455 50.1093 46.444 50.6973 47.718C51.1772 48.9025 51.3492 50.1891 51.1973 51.458H52.2223C52.9577 51.4587 53.6628 51.7515 54.1823 52.272C54.4405 52.5286 54.6454 52.8337 54.7854 53.1697C54.9254 53.5057 54.9978 53.866 54.9983 54.23C54.997 54.9653 54.7043 55.67 54.1844 56.1899C53.6644 56.7099 52.9596 57.0026 52.2243 57.0039L30.7743 57ZM30.7743 55.021H52.2273C52.4386 55.021 52.6414 54.9375 52.7913 54.7886C52.9411 54.6396 53.026 54.4374 53.0273 54.2261C53.0277 54.122 53.0076 54.0189 52.9681 53.9226C52.9287 53.8263 52.8706 53.7389 52.7973 53.665C52.7237 53.5908 52.6362 53.5318 52.5398 53.4915C52.4433 53.4511 52.3399 53.4302 52.2353 53.4299H30.7743C30.5633 53.4311 30.3614 53.5157 30.2123 53.665C30.1387 53.7387 30.0804 53.8261 30.0408 53.9224C30.0011 54.0186 29.9809 54.1219 29.9813 54.2261C29.9817 54.4371 30.0654 54.6395 30.2143 54.7891C30.363 54.9374 30.5643 55.0208 30.7743 55.021ZM37.7693 45.3259C37.4613 45.5199 37.1583 45.7111 36.9483 45.8491C35.7686 46.4733 34.7841 47.4111 34.1033 48.5591C33.7607 49.4825 33.6481 50.4752 33.7753 51.4519H49.2303C49.3638 50.4686 49.2521 49.4678 48.9053 48.5381C48.218 47.399 47.2321 46.4698 46.0543 45.8511C45.6973 45.6161 45.4693 45.473 45.2363 45.325C43.6983 44.356 42.0834 43.338 41.5023 41.906C40.9193 43.339 39.3003 44.3579 37.7693 45.3259ZM34.0693 32.7991C34.7215 34.0245 35.7261 35.0263 36.9533 35.675C37.1633 35.812 37.4663 36.004 37.7743 36.197C39.3103 37.166 40.9253 38.184 41.5053 39.615C42.0863 38.184 43.7053 37.166 45.2373 36.197C45.5443 36.004 45.8523 35.81 46.0573 35.675C47.2849 35.0267 48.2895 34.0248 48.9413 32.7991C49.2815 31.7687 49.3817 30.6742 49.2343 29.5991H33.7713C33.6233 30.6745 33.7236 31.7694 34.0643 32.8L34.0693 32.7991ZM30.2163 26.208C30.0689 26.3577 29.9862 26.5594 29.9862 26.7695C29.9862 26.9797 30.0689 27.1814 30.2163 27.3311C30.3658 27.4803 30.5681 27.5643 30.7793 27.5649H52.2323C52.3368 27.5649 52.4402 27.5443 52.5367 27.5042C52.6331 27.464 52.7207 27.4052 52.7943 27.3311C52.8681 27.2573 52.9266 27.1698 52.9665 27.0735C53.0064 26.9771 53.0269 26.8738 53.0269 26.7695C53.0269 26.6652 53.0064 26.5619 52.9665 26.4656C52.9266 26.3692 52.8681 26.2817 52.7943 26.208C52.6448 26.0591 52.4424 25.9755 52.2313 25.9751H30.7743C30.5633 25.9755 30.3609 26.0591 30.2113 26.208H30.2163Z" fill="#F55767"/>
</svg>
