<svg width="110" height="110" viewBox="0 0 110 110" fill="none" xmlns="http://www.w3.org/2000/svg">
<g clip-path="url(#clip0_1_457)">
<path d="M75 0H35C15.67 0 0 15.67 0 35V75C0 94.33 15.67 110 35 110H75C94.33 110 110 94.33 110 75V35C110 15.67 94.33 0 75 0Z" fill="#E4FFEE"/>
<path d="M79.4792 66.589L79.3602 62.8541C79.3512 62.5425 79.281 62.2357 79.1533 61.9513C79.0256 61.667 78.843 61.4106 78.616 61.1969C78.3891 60.9833 78.1222 60.8166 77.8306 60.7062C77.5391 60.5959 77.2287 60.5441 76.9172 60.554L76.4102 60.569C75.4556 56.4766 73.3108 52.7584 70.2462 49.8831L70.2142 49.8531C68.325 48.068 66.126 46.6426 63.7252 45.647L70.2742 45.4471C70.6498 46.4154 71.3558 47.2197 72.2674 47.7176C73.179 48.2154 74.2372 48.3748 75.2549 48.1674C76.2727 47.96 77.1842 47.3992 77.8283 46.5844C78.4724 45.7696 78.8075 44.7531 78.7742 43.715C78.7382 42.5474 78.2408 41.4417 77.3912 40.6401C76.971 40.2419 76.4757 39.9316 75.9341 39.7272C75.3926 39.5229 74.8157 39.4286 74.2372 39.45C73.0712 39.4836 71.9662 39.979 71.1652 40.8271C70.718 41.3039 70.3813 41.8734 70.1791 42.495L58.3881 42.8481L58.3752 42.448C58.3664 42.1364 58.2962 41.8296 58.1685 41.5452C58.0409 41.2608 57.8583 41.0044 57.6313 40.7907C57.4043 40.577 57.1375 40.4103 56.8459 40.3C56.5543 40.1897 56.2438 40.138 55.9322 40.148L52.1581 40.2531C51.8472 40.2615 51.541 40.3312 51.2571 40.4585C50.9733 40.5858 50.7175 40.7682 50.5045 40.9948C50.2914 41.2214 50.1254 41.488 50.0158 41.7791C49.9063 42.0702 49.8553 42.3802 49.8662 42.6911L49.8792 43.091L38.0882 43.445C37.7126 42.4766 37.0066 41.6723 36.095 41.1745C35.1835 40.6766 34.1251 40.5173 33.1074 40.7247C32.0896 40.932 31.1781 41.4928 30.534 42.3077C29.8899 43.1225 29.5549 44.1389 29.5882 45.177C29.6205 46.2134 30.0177 47.205 30.7098 47.9771C31.4019 48.7492 32.3444 49.252 33.371 49.3969C34.3977 49.5418 35.4426 49.3195 36.3214 48.7692C37.2001 48.2189 37.8563 47.376 38.1741 46.3891L44.7232 46.189C41.6705 47.6836 39.0167 49.8823 36.9804 52.6038C34.9441 55.3253 33.5836 58.4917 33.0112 61.8421L32.3812 61.861C31.7521 61.8811 31.1567 62.15 30.7255 62.6086C30.2944 63.0671 30.0626 63.6779 30.0812 64.3071L30.2001 68.0571C30.2089 68.3687 30.2792 68.6755 30.4068 68.9599C30.5344 69.2443 30.7171 69.5007 30.944 69.7144C31.171 69.9281 31.438 70.0948 31.7296 70.2051C32.0211 70.3154 32.3315 70.3671 32.6431 70.3571L36.3942 70.245C37.0232 70.2247 37.6185 69.9557 38.0496 69.4972C38.4807 69.0388 38.7125 68.4281 38.6942 67.799L38.5751 64.048C38.5665 63.7364 38.4963 63.4295 38.3687 63.1451C38.2411 62.8606 38.0586 62.6041 37.8316 62.3904C37.6046 62.1767 37.3376 62.0099 37.046 61.8997C36.7543 61.7895 36.4438 61.738 36.1321 61.7481H36.0242C36.7477 58.2354 38.4751 55.008 40.997 52.4579C43.5189 49.9078 46.7267 48.1445 50.2311 47.382C50.3553 47.6492 50.5302 47.8897 50.7462 48.09C50.9732 48.3038 51.2403 48.4706 51.532 48.5807C51.8238 48.6909 52.1345 48.7424 52.4462 48.7321L56.1972 48.62C56.6563 48.6055 57.1012 48.4579 57.478 48.1951C57.8547 47.9324 58.1469 47.5658 58.3192 47.1401C61.8687 47.6909 65.1828 49.2577 67.8611 51.6512C70.5395 54.0447 72.4674 57.1626 73.4122 60.6281L73.1812 60.6351C72.5522 60.6554 71.9569 60.9244 71.5258 61.3829C71.0947 61.8413 70.8628 62.452 70.8812 63.0811L71.0002 66.8311C71.009 67.1427 71.0792 67.4495 71.2068 67.7339C71.3345 68.0183 71.5171 68.2748 71.7441 68.4885C71.9711 68.7021 72.2379 68.8689 72.5295 68.9792C72.8211 69.0895 73.1316 69.141 73.4432 69.131L77.1942 69.0191C77.5039 69.0102 77.809 68.9401 78.0916 68.813C78.3743 68.686 78.6291 68.5044 78.8414 68.2786C79.0537 68.0528 79.2192 67.7874 79.3287 67.4975C79.4381 67.2075 79.4893 66.8988 79.4792 66.589ZM35.7261 67.3471L33.0972 67.4261L33.0131 64.797L35.6422 64.7181L35.7261 67.3471ZM74.3091 42.387C74.5969 42.3788 74.8805 42.4562 75.1243 42.6092C75.3681 42.7622 75.5612 42.984 75.679 43.2466C75.7968 43.5093 75.8341 43.8008 75.7862 44.0846C75.7383 44.3685 75.6074 44.6318 75.41 44.8412C75.2125 45.0507 74.9574 45.1969 74.6769 45.2614C74.3964 45.3259 74.1032 45.3059 73.834 45.2038C73.5649 45.1017 73.3321 44.9222 73.165 44.6878C72.9979 44.4534 72.904 44.1747 72.8952 43.887C72.8898 43.6955 72.9224 43.5049 72.991 43.3261C73.0597 43.1473 73.1631 42.9837 73.2952 42.845C73.5603 42.5656 73.9242 42.4011 74.3091 42.387ZM34.0262 46.5251C33.7385 46.5332 33.4548 46.4559 33.211 46.3029C32.9672 46.1499 32.7742 45.9282 32.6564 45.6656C32.5386 45.403 32.5013 45.1113 32.5491 44.8274C32.597 44.5436 32.7279 44.2803 32.9254 44.0708C33.1228 43.8614 33.3779 43.7152 33.6584 43.6507C33.9389 43.5861 34.2323 43.6062 34.5014 43.7083C34.7705 43.8104 35.0033 43.9901 35.1704 44.2244C35.3374 44.4588 35.4313 44.7374 35.4401 45.0251C35.446 45.2166 35.4141 45.4073 35.3461 45.5865C35.2782 45.7656 35.1754 45.9296 35.044 46.069C34.9126 46.2084 34.755 46.3207 34.5801 46.3991C34.4053 46.4775 34.2167 46.5206 34.0252 46.526L34.0262 46.5251ZM52.8992 45.8061L52.8151 43.177L55.4442 43.0981L55.4861 44.4051L55.5281 45.7121L52.8992 45.8061ZM73.9052 66.194L73.8212 63.565L76.4501 63.4871L76.5342 66.116L73.9052 66.194Z" fill="#40975F"/>
</g>
<defs>
<clipPath id="clip0_1_457">
<rect width="110" height="110" fill="white"/>
</clipPath>
</defs>
</svg>
